<svg width="2331" height="1480" xmlns="http://www.w3.org/2000/svg" xmlns:xlink="http://www.w3.org/1999/xlink" xml:space="preserve" overflow="hidden"><g transform="translate(-451 -380)"><path d="M1580.45 1701.79 1566.22 1658.17C1571.47 1654.68 1575.74 1652.11 1580.45 1648.35 1582.67 1646.58 1584.64 1644.48 1587.01 1642.9 1596.35 1636.7 1590.49 1642.19 1599.05 1637.45 1600.64 1636.56 1603.42 1634.18 1603.42 1634.18L1866 1620 1836.46 1799.93 1816.77 1833.73 1798.17 1849 1791.6 1840.28 1582.63 1739.95 1553.09 1710.51 1552 1679.98 1577.16 1654.9 1606.7 1634.18" fill="#D9D9D9" fill-rule="evenodd"/><path d="M1839 1853 1886.08 1744.96 1933.16 1352.43 1962.14 1294.81 2777 1266 2693.7 1730.56 2049.05 1820.59 1839 1853Z" fill="#FBE3D6" fill-rule="evenodd"/><path d="M1495.5 1648.88 1874.04 1614.42 1909.37 1306.38 1952.28 1280.03 2777.5 1239.5 2706.84 1636.72 2684.13 1731.97 2499.9 1772.5" stroke="#042433" stroke-width="6.875" stroke-miterlimit="8" fill="none" fill-rule="evenodd"/><path d="M2503.5 1770.41 2503.5 1770.41 2435.55 1782.57 1816.5 1855.5 1844.18 1808.91 1871.86 1620.5" stroke="#042433" stroke-width="6.875" stroke-miterlimit="8" fill="none" fill-rule="evenodd"/><path d="M1634.95 1634.5 1634.95 1634.5C1621.54 1636.53 1607.5 1636.72 1594.72 1640.58 1589.13 1642.27 1570.18 1655.19 1564.56 1660.86 1560.78 1664.67 1557.85 1668.97 1554.5 1673.03 1554.53 1673.15 1556.92 1688.65 1559.53 1691.28 1561.42 1693.18 1564.93 1693.61 1567.07 1695.33 1581.77 1707.19 1575.09 1705.13 1587.18 1713.58 1633.56 1746.01 1600.13 1723.39 1637.46 1744 1646.87 1749.19 1655.22 1755.66 1665.12 1760.22 1672.95 1763.83 1681.99 1765.42 1690.26 1768.33 1695.41 1770.15 1700.23 1772.53 1705.34 1774.42 1751.86 1791.61 1735.09 1788.14 1763.16 1792.67 1767.35 1794.69 1771.67 1796.56 1775.73 1798.75 1779.22 1800.62 1782.15 1803.16 1785.79 1804.83 1788.09 1805.89 1790.82 1806.19 1793.33 1806.86 1796.68 1810.24 1800.17 1813.54 1803.39 1817 1805.2 1818.95 1806.45 1821.23 1808.42 1823.08 1811.5 1825.99 1815.12 1828.49 1818.47 1831.19 1819.31 1833.9 1820.04 1836.63 1820.99 1839.31 1821.71 1841.36 1823.5 1843.25 1823.5 1845.39 1823.5 1847.53 1823.29 1850.41 1820.99 1851.47 1816.56 1853.51 1810.93 1852.82 1805.9 1853.5 1797.52 1851.47 1788.59 1850.57 1780.76 1847.42 1776.52 1845.71 1774.37 1841.73 1770.71 1839.31 1765.13 1835.62 1758.65 1832.89 1753.11 1829.17 1722.55 1808.63 1763.18 1829.68 1717.91 1806.86 1712.18 1803.97 1706.36 1801.19 1700.31 1798.75 1696.28 1797.12 1691.64 1796.53 1687.74 1794.69 1665.46 1784.21 1676.8 1786.23 1657.57 1778.47 1642.73 1772.49 1646.42 1776.79 1632.43 1768.33 1629.59 1766.61 1627.19 1764.44 1624.89 1762.25 1617.96 1755.64 1611.48 1748.73 1604.78 1741.97 1590.74 1727.81 1596.84 1735.81 1587.18 1717.64 1584.92 1708.51 1583.77 1702.48 1579.64 1693.31 1578.36 1690.46 1575.05 1688.2 1574.61 1685.19 1573.34 1676.47 1574.61 1667.62 1574.61 1658.83L1574.61 1660.86" stroke="#042433" stroke-width="6.875" stroke-miterlimit="8" fill="none" fill-rule="evenodd"/><path d="M1260.4 395.745 1260.4 395.745C1264 409.024 1267.51 422.32 1271.21 435.582 1275.87 452.283 1273.1 438.814 1275.84 454.256 1272.98 521.043 1279.39 470.188 1269.66 501.562 1268.92 503.961 1267.99 513.463 1266.57 516.5 1265.41 519.012 1262.66 520.902 1260.4 522.725 1258.34 520.235 1256.35 517.707 1254.22 515.255 1252.74 513.556 1250.35 512.259 1249.59 510.276 1248.22 506.684 1248.45 502.815 1248.04 499.072 1247.42 493.269 1247.01 487.453 1246.5 481.643 1247.01 468.779 1246.75 455.88 1248.04 443.051 1248.31 440.435 1249.79 437.971 1251.13 435.582 1260.14 419.608 1259.84 418.379 1271.21 408.194 1273.15 406.45 1275.45 404.969 1277.38 403.215 1279.57 401.229 1280.78 398.417 1283.56 396.99 1286.72 395.368 1290.77 395.33 1294.37 394.501 1296.64 394.615 1315.99 393.881 1323.71 396.99 1326.39 398.072 1328.91 399.41 1331.43 400.725 1337.66 403.976 1342.76 409.233 1349.96 410.684L1356.14 411.929C1361.11 414.599 1361.07 414.803 1366.95 416.909 1373.53 419.269 1377.59 419.848 1383.93 423.133 1388.26 425.377 1392 428.301 1396.29 430.603 1400.92 433.092 1406.25 434.898 1410.18 438.072 1418.2 444.538 1420.92 446.361 1428.71 455.5 1430.67 457.794 1431.33 460.713 1433.35 462.97 1438.05 468.225 1443.68 472.905 1448.79 477.909 1450.88 479.96 1452.63 482.254 1454.97 484.133 1457.54 486.208 1460.38 488.087 1462.69 490.358 1467.54 495.144 1469.37 499.059 1473.5 504.051 1480.56 512.596 1485.75 513.807 1492.03 526.46 1493.05 528.534 1493.58 530.825 1495.11 532.684 1496.73 534.637 1499.4 535.881 1501.29 537.664 1502.5 538.8 1503.3 540.181 1504.38 541.398 1505.88 543.086 1507.54 544.678 1509.01 546.378 1515.3 553.615 1516.56 555.29 1521.36 563.806 1522.04 565.001 1522.27 566.335 1522.91 567.541 1528.37 577.805 1524.04 566.63 1530.63 581.235 1532.25 584.823 1533.26 591.788 1533.72 594.929 1537.53 621.053 1533.19 595.682 1536.81 616.092 1537.84 629.786 1538.02 643.539 1539.9 657.174 1540.41 660.908 1540.58 664.684 1541.44 668.378 1542.13 671.347 1543.5 674.187 1544.53 677.092 1548.75 721.328 1542.98 670.855 1549.16 704.48 1550.53 711.914 1551.59 719.392 1552.25 726.888 1552.85 733.63 1554.38 751.956 1555.34 759.255 1557.29 774.229 1555.77 761.911 1559.97 775.439 1561.2 779.4 1562.45 789.428 1563.06 792.867 1563.5 795.366 1564.09 797.847 1564.6 800.337 1564.09 817.35 1564 834.376 1563.06 851.378 1562.96 853.087 1561.86 854.67 1561.51 856.357 1555.9 883.493 1563.15 853.5 1558.43 872.541 1558.94 877.52 1558.83 882.568 1559.97 887.479 1560.39 889.304 1562.25 890.721 1563.06 892.459 1563.8 894.061 1563.77 895.866 1564.6 897.439 1576.15 919.153 1569.51 900.811 1575.41 919.847 1575.93 926.901 1576.16 933.972 1576.96 941.01 1577.19 943.117 1578.5 945.119 1578.5 947.235 1578.5 954.716 1577.47 962.173 1576.96 969.643 1571.81 967.568 1566.77 965.303 1561.51 963.418 1556.31 961.554 1550.12 959.942 1544.53 958.439 1540.93 961.343 1536.73 963.84 1533.72 967.153 1522.55 979.432 1533.42 975.533 1522.91 978.357 1520.85 977.527 1519.03 975.867 1516.73 975.867 1507.65 975.867 1512.31 978.772 1509.01 982.092 1507.85 983.26 1506.16 984.159 1504.38 984.581 1497.31 986.258 1489.97 987.071 1482.76 988.316L1468.86 993.296C1466.77 994.074 1464.43 994.578 1462.69 995.786 1460.73 997.136 1459.55 999.077 1458.05 1000.76 1456.97 1001.98 1453.11 1004.5 1454.97 1004.5 1457.54 1004.5 1459.08 1002.01 1461.14 1000.76L1461.14 1000.76" stroke="#042433" stroke-width="6.875" stroke-miterlimit="8" fill="none" fill-rule="evenodd"/><path d="M1235.07 885.629 1235.07 885.629C1225.95 880.13 1211.35 872.056 1205.72 864.516 1202.27 859.891 1196.32 851.432 1191.82 848.371 1185.13 843.817 1178.76 838.939 1171.74 834.71 1169.69 833.468 1167.49 832.359 1165.57 830.984 1162.85 829.039 1159.96 827.157 1157.84 824.774 1147.16 812.746 1153.25 818.599 1139.31 807.387 1138.28 805.317 1137.37 803.207 1136.22 801.178 1134.79 798.649 1132.75 796.341 1131.59 793.726 1130.16 790.511 1129.53 787.102 1128.5 783.79 1128.91 775.296 1129.23 751.421 1131.59 739.081 1131.84 737.787 1132.67 736.609 1133.13 735.355 1134.21 732.468 1135.31 729.585 1136.22 726.661 1137.32 723.121 1141.84 706.22 1142.4 703.065 1142.91 700.167 1143.29 697.251 1143.94 694.371 1144.32 692.692 1145.07 691.077 1145.49 689.403 1146.1 686.934 1146.52 684.436 1147.03 681.952 1148.06 671.602 1148.88 661.237 1150.12 650.903 1150.42 648.397 1150.75 645.858 1151.67 643.452 1152.82 640.438 1154.92 637.71 1156.3 634.758 1158.01 631.081 1158.95 627.17 1160.93 623.581 1163.09 619.686 1166.39 616.255 1168.66 612.403 1171.03 608.374 1172.77 604.124 1174.83 599.984 1175.42 596.182 1176.71 586.828 1177.92 582.597 1178.77 579.66 1179.91 576.784 1181.01 573.903 1181.97 571.401 1182.75 568.835 1184.1 566.452 1185.34 564.254 1187.45 562.423 1188.73 560.242 1196.58 546.926 1195.02 544.875 1204.18 535.403 1207.38 532.093 1209.33 531.402 1213.44 529.194 1220.14 529.608 1226.85 529.84 1233.52 530.435 1237.05 530.751 1243.77 532.185 1247.42 532.919 1255.66 532.091 1264.01 531.811 1272.13 530.435 1273.95 530.128 1275.06 528.54 1276.77 527.952 1278.72 527.279 1280.89 527.124 1282.94 526.71 1285 525.882 1287.01 524.956 1289.12 524.226 1293.16 522.833 1304.22 520.879 1306.11 520.5 1311.04 520.773 1341.22 519.429 1355.53 524.226 1360.21 525.794 1364.8 527.538 1369.43 529.194L1383.33 540.371C1385.39 542.027 1387.09 544.04 1389.51 545.339 1391.06 546.167 1392.69 546.898 1394.14 547.823 1410.55 558.237 1433.99 572.158 1443.57 587.565L1457.47 609.919C1460.02 622.255 1457.32 612.835 1463.64 626.065 1464.81 628.508 1465.7 631.033 1466.73 633.516 1467.25 634.758 1467.13 636.316 1468.28 637.242 1476.28 643.673 1472.71 640.336 1479.09 647.178 1482.69 644.694 1486.75 642.578 1489.9 639.726 1490.98 638.747 1490.72 637.171 1491.44 636 1492.27 634.665 1493.61 633.57 1494.53 632.274 1495.68 630.667 1495.85 628.492 1497.62 627.306 1499.25 626.214 1501.72 626.399 1503.8 626.065 1506.87 625.571 1510 625.35 1513.07 624.823 1517.22 624.107 1525.42 622.339 1525.42 622.339 1547.39 651.245 1540.51 634.68 1543.96 659.597 1544.3 662.1 1544.99 664.565 1545.5 667.049 1544.47 673.258 1544.88 679.734 1542.41 685.677 1539 693.904 1532.76 699.026 1526.97 705.549 1523.95 708.949 1522.92 710.919 1519.24 714.242 1516.83 716.43 1515.1 719.928 1511.52 720.452 1492.93 723.17 1499.99 721.472 1489.9 724.177 1476.38 732.332 1481.19 728.702 1474.46 734.113 1476.7 759.383 1478.13 765.28 1472.91 797.452 1472.8 798.156 1461.8 817.567 1460.56 818.565 1458.5 820.22 1456.05 821.614 1454.38 823.533 1452.4 825.808 1451.42 828.556 1449.74 830.984 1448.84 832.289 1447.63 833.439 1446.66 834.71 1443.51 838.821 1440.07 842.811 1437.39 847.129 1436.36 848.785 1435.42 850.478 1434.3 852.097 1432.84 854.207 1431.01 856.148 1429.67 858.306 1428.94 859.477 1428.76 860.829 1428.12 862.032 1425.77 866.444 1425.05 866.984 1421.94 870.726 1420.35 877.145 1421.14 877.593 1415.77 883.145 1413.98 884.994 1411.34 886.24 1409.59 888.113 1403.14 895.023 1410.73 891.964 1400.32 898.049 1396.97 900.012 1393.07 901.299 1389.51 903.016 1387.92 903.784 1386.42 904.672 1384.88 905.5L1384.88 905.5" stroke="#042433" stroke-width="6.875" stroke-miterlimit="8" fill="none" fill-rule="evenodd"/><path d="M1226.5 805.357 1226.5 805.357C1232.97 806.643 1239.26 808.807 1245.91 809.214 1254.5 809.739 1270.05 807.757 1279.86 806.643 1293.88 807.071 1307.91 807.254 1321.91 807.928 1325.71 808.112 1329.42 809.214 1333.23 809.214 1348.87 809.214 1364.49 808.357 1380.12 807.928 1381.74 807.5 1383.77 807.601 1384.98 806.643 1389.05 803.407 1396.48 797.059 1386.59 793.785 1382.09 792.293 1376.89 792.928 1372.04 792.5L1299.27 793.785C1295.99 793.887 1292.68 794.247 1289.57 795.071 1278.39 798.034 1290.86 797.471 1279.86 798.928 1275.05 799.566 1270.16 799.786 1265.31 800.214 1263.69 800.642 1262.1 801.143 1260.46 801.5 1256.17 802.43 1251.5 802.491 1247.52 804.071L1241.05 806.643C1241.59 808.785 1241.31 811.174 1242.67 813.071 1243.64 814.413 1246.03 814.654 1247.52 815.643 1259.97 823.893 1245.18 815.686 1257.22 822.071 1258.33 824.704 1259.18 827.868 1262.08 829.786 1263.93 831.013 1266.34 831.579 1268.54 832.357 1272.89 833.892 1278.26 835.664 1283.1 836.214 1288.46 836.823 1293.88 837.071 1299.27 837.5 1310.05 837.071 1320.86 836.991 1331.61 836.214 1347.87 835.039 1349.79 836.37 1359.1 829.786 1367.57 823.802 1367.19 826.282 1367.19 822.071L1367.19 822.071" stroke="#042433" stroke-width="6.875" stroke-miterlimit="8" fill="none" fill-rule="evenodd"/><path d="M1265.5 661.5 1265.5 661.5C1267.13 664.966 1268.81 668.42 1270.4 671.9 1270.99 673.187 1271.66 674.462 1272.03 675.8 1272.75 678.373 1273.07 681.006 1273.66 683.6 1274.16 685.773 1275.21 687.891 1275.3 690.1 1275.76 702.227 1275.3 714.367 1275.3 726.5L1275.3 726.5" stroke="#042433" stroke-width="6.875" stroke-miterlimit="8" fill="none" fill-rule="evenodd"/><path d="M1281.5 764.063 1281.5 764.063C1296.64 766.098 1299.15 767.724 1313.64 765.251 1315.98 764.853 1317.87 763.573 1320.07 762.875 1326.54 760.828 1323.28 762.878 1326.5 760.5L1326.5 760.5" stroke="#042433" stroke-width="6.875" stroke-miterlimit="8" fill="none" fill-rule="evenodd"/><path d="M1263.5 678.5 1263.5 678.5C1267.25 675.801 1270.75 672.841 1274.74 670.401 1288.99 661.684 1275.37 672.571 1284.37 665.002 1304.85 665.863 1310 661.457 1321.29 669.051 1322.47 669.846 1323.43 670.851 1324.5 671.751L1324.5 671.751" stroke="#042433" stroke-width="6.875" stroke-miterlimit="8" fill="none" fill-rule="evenodd"/><path d="M1436.5 649.5 1436.5 649.5C1442.88 648.196 1449.48 647.475 1455.64 645.587 1460.75 644.019 1461.53 641.467 1465.2 639.065 1466.7 638.086 1468.49 637.436 1469.99 636.456 1471.16 635.688 1472.02 634.635 1473.18 633.848 1475.22 632.456 1477.51 631.326 1479.55 629.935 1480.71 629.148 1481.6 628.126 1482.74 627.326 1485.33 625.514 1487.99 623.779 1490.72 622.108 1492.25 621.168 1495.5 619.5 1495.5 619.5L1495.5 619.5" stroke="#042433" stroke-width="6.875" stroke-miterlimit="8" fill="none" fill-rule="evenodd"/><path d="M1326 679.5C1326 650.505 1352.42 627 1385 627 1417.58 627 1444 650.505 1444 679.5 1444 708.495 1417.58 732 1385 732 1352.42 732 1326 708.495 1326 679.5Z" fill="#A6CAEC" fill-rule="evenodd"/><path d="M1144 691.5C1144 662.505 1170.42 639 1203 639 1235.58 639 1262 662.505 1262 691.5 1262 720.495 1235.58 744 1203 744 1170.42 744 1144 720.495 1144 691.5Z" fill="#A6CAEC" fill-rule="evenodd"/><path d="M1373.5 1411.36 1373.5 1411.36C1368.92 1409.06 1364.28 1406.85 1359.75 1404.47 1358.17 1403.63 1356.86 1402.34 1355.17 1401.71 1347.3 1398.75 1342.69 1397.85 1335.31 1396.19 1333.78 1395.27 1332.42 1394.08 1330.73 1393.43 1328.8 1392.68 1326.43 1393.01 1324.62 1392.05 1320.22 1389.74 1316.63 1386.33 1312.4 1383.78 1310.87 1382.86 1309.11 1382.19 1307.82 1381.02 1306.01 1379.39 1304.76 1377.34 1303.23 1375.5 1297.63 1375.96 1291.86 1375.57 1286.43 1376.88 1283.97 1377.47 1282.6 1379.99 1280.32 1381.02 1277.44 1382.32 1274.14 1382.7 1271.15 1383.78 1262.64 1386.85 1267.55 1385.74 1260.46 1389.29 1257.47 1390.79 1254.22 1391.84 1251.3 1393.43 1249.11 1394.61 1247.37 1396.39 1245.18 1397.57 1242.26 1399.16 1238.95 1400.12 1236.02 1401.71 1234.18 1402.7 1227.89 1407.55 1225.33 1408.6 1220.61 1410.54 1213.9 1412.5 1208.52 1414.12 1207 1415.04 1205.53 1416.06 1203.94 1416.88 1201.96 1417.9 1199.73 1418.5 1197.83 1419.64 1193.59 1422.19 1185.61 1427.91 1185.61 1427.91 1184.59 1429.29 1183.38 1430.57 1182.56 1432.05 1180.42 1435.9 1180.06 1442.28 1179.5 1445.84 1180.01 1448.14 1179.19 1451.08 1181.03 1452.74 1182.86 1454.4 1186.15 1453.55 1188.67 1454.12 1190.23 1454.47 1191.72 1455.04 1193.25 1455.5 1219.72 1452.69 1210.5 1452.74 1220.74 1452.74L1220.74 1452.74" stroke="#042433" stroke-width="6.875" stroke-miterlimit="8" fill="none" fill-rule="evenodd"/><path d="M1310.5 1380.73 1310.5 1380.73C1314.55 1377.96 1318.34 1374.85 1322.65 1372.43 1324.97 1371.12 1327.53 1369.91 1330.24 1369.66 1347.89 1368.05 1365.67 1367.81 1383.38 1366.89 1384.9 1366.43 1386.34 1365.42 1387.94 1365.5 1410.69 1366.66 1420.69 1364.16 1404.64 1389.04 1403.01 1391.56 1398.5 1390.72 1395.53 1391.81 1388.38 1394.42 1389.91 1395.34 1381.86 1397.35 1378.89 1398.09 1375.77 1398.18 1372.75 1398.73 1370.71 1399.1 1366.68 1400.12 1366.68 1400.12L1365.16 1401.5" stroke="#042433" stroke-width="6.875" stroke-miterlimit="8" fill="none" fill-rule="evenodd"/><path d="M1336.5 1365.72 1336.5 1365.72C1332.47 1363.88 1328.16 1362.7 1324.41 1360.2 1323.15 1359.37 1322.84 1357.42 1321.99 1356.07 1320.82 1354.2 1319.48 1352.47 1318.36 1350.55 1317.06 1348.33 1316.28 1345.68 1314.74 1343.66 1313.41 1341.93 1311.33 1341.15 1309.9 1339.53 1308.87 1338.36 1308.51 1336.56 1307.48 1335.39 1306.45 1334.22 1305.04 1333.6 1303.85 1332.64 1302.21 1331.3 1300.63 1329.88 1299.02 1328.5 1295.79 1329.42 1292.11 1329.16 1289.35 1331.26 1286.93 1333.09 1284.51 1339.53 1284.51 1339.53 1280.86 1356.18 1283.3 1343.15 1283.3 1379.5L1283.3 1379.5" stroke="#042433" stroke-width="6.875" stroke-miterlimit="8" fill="none" fill-rule="evenodd"/><path d="M842.5 1404.5 842.5 1404.5C847.064 1404.96 851.737 1404.87 856.192 1405.88 857.966 1406.29 859.188 1407.79 860.756 1408.65 866.372 1411.71 874.394 1415.84 880.533 1418.32 881.999 1418.92 883.576 1419.24 885.097 1419.71 887.633 1421.55 889.865 1423.8 892.704 1425.24 907.039 1432.47 890.356 1419.96 904.875 1429.38 906.625 1430.52 907.594 1432.52 909.439 1433.53 930.706 1445.12 921.692 1438.41 938.344 1445.97 940.989 1447.17 943.365 1448.81 945.95 1450.12 947.933 1451.12 950.149 1451.74 952.036 1452.88 956.255 1455.44 960.016 1458.58 964.206 1461.18 971.18 1465.5 978.396 1469.48 985.505 1473.62 991.074 1476.86 996.162 1480.93 1002.24 1483.29 1029.17 1493.78 1016.51 1488.68 1040.27 1498.5L1073.74 1497.12C1093 1496.12 1088.25 1496.69 1101.13 1494.35 1103.72 1494.44 1145.76 1497.55 1158.94 1494.35 1161.79 1493.66 1163.96 1491.51 1166.54 1490.21 1173.05 1486.92 1171.76 1487.64 1178.71 1486.06 1181.25 1484.68 1183.63 1483.02 1186.32 1481.91 1189.24 1480.71 1192.7 1480.65 1195.45 1479.15 1197.91 1477.81 1199.37 1475.33 1201.53 1473.62 1203.44 1472.1 1205.83 1471.1 1207.62 1469.47 1208.91 1468.3 1209.27 1466.4 1210.66 1465.32 1212.91 1463.57 1215.88 1462.76 1218.27 1461.18 1238.89 1447.55 1215.34 1460.53 1238.05 1448.74 1239.06 1447.35 1239.71 1445.68 1241.09 1444.59 1243.84 1442.4 1247 1440.63 1250.22 1439.06 1269.5 1429.63 1278.13 1434.39 1306.5 1433.53 1322.29 1423.97 1297.86 1438.52 1317.15 1428 1322.17 1425.26 1329.47 1419.76 1335.41 1418.32 1339.85 1417.25 1344.54 1417.4 1349.1 1416.94 1364.32 1417.4 1379.54 1417.58 1394.74 1418.32 1398.32 1418.5 1402.02 1418.59 1405.39 1419.71 1407.77 1420.49 1409.4 1422.53 1411.48 1423.85 1420.66 1429.69 1418.47 1428.41 1426.69 1432.15 1437.08 1441.59 1428.58 1434.47 1443.42 1444.59 1454.68 1452.26 1446.82 1448.2 1457.12 1452.88 1458.64 1454.26 1459.96 1455.86 1461.68 1457.03 1467.43 1460.95 1468.24 1460.86 1473.85 1462.56 1481.34 1472.77 1477.74 1468.19 1484.5 1476.38 1483.99 1477.76 1484.33 1479.75 1482.98 1480.53 1478.37 1483.19 1467.77 1486.06 1467.77 1486.06 1459.65 1485.6 1451.52 1485.32 1443.42 1484.68 1439.85 1484.39 1436.18 1484.32 1432.77 1483.29 1429.97 1482.44 1427.81 1480.35 1425.17 1479.15 1423.73 1478.5 1422.04 1478.42 1420.6 1477.76 1418.97 1477.02 1417.8 1475.44 1416.04 1475 1412.1 1474.02 1407.93 1474.08 1403.87 1473.62 1401.33 1472.7 1398.82 1471.72 1396.26 1470.85 1394.76 1470.34 1393.13 1470.12 1391.7 1469.47 1386.74 1467.22 1386.92 1465.39 1381.05 1463.94 1377.59 1463.08 1373.95 1463.02 1370.4 1462.56 1368.88 1462.1 1367.23 1461.9 1365.84 1461.18 1360.1 1458.2 1355.59 1452.68 1349.1 1451.5L1341.5 1450.12C1336.42 1451.04 1331.19 1451.4 1326.28 1452.88 1323.24 1453.8 1320.32 1455.17 1317.15 1455.65 1314.15 1456.1 1311.07 1455.65 1308.03 1455.65L1308.03 1455.65" stroke="#042433" stroke-width="6.875" stroke-miterlimit="8" fill="none" fill-rule="evenodd"/><path d="M1309.31 1454.5 1309.31 1454.5C1304.76 1456.8 1300.14 1459.02 1295.64 1461.4 1286.01 1466.51 1296.66 1461.69 1285.01 1468.31 1280.72 1470.75 1278.81 1471.11 1274.38 1472.45 1272.86 1473.37 1271.41 1474.39 1269.82 1475.22 1267.86 1476.24 1265.63 1476.84 1263.75 1477.98 1259.53 1480.53 1255.81 1483.71 1251.6 1486.26 1249.71 1487.41 1247.4 1487.88 1245.52 1489.03 1241.31 1491.58 1237.58 1494.76 1233.37 1497.31 1226.75 1501.32 1228.81 1499 1222.74 1501.45 1206.92 1507.85 1219.33 1503.87 1209.07 1506.98 1205.07 1514.24 1199.44 1519.24 1204.51 1527.69 1206.06 1530.28 1209.57 1531.38 1212.11 1533.22 1217.17 1532.76 1222.25 1532.41 1227.29 1531.84 1244.85 1529.84 1228.45 1531.2 1244 1529.08 1264.34 1526.3 1264.98 1526.46 1283.49 1524.93 1285.01 1524.47 1286.67 1524.29 1288.05 1523.55 1292.78 1521.04 1297.16 1518.03 1301.72 1515.27L1306.27 1512.5C1307.79 1511.58 1309.14 1510.36 1310.83 1509.74 1313.36 1508.82 1315.99 1508.09 1318.42 1506.98 1322.08 1505.32 1325.32 1502.94 1329.06 1501.45 1339.14 1497.45 1344.63 1497.21 1354.88 1494.55 1361.81 1492.75 1363.6 1491.48 1370.07 1490.41 1373.59 1489.82 1377.15 1489.49 1380.7 1489.03 1388.29 1489.49 1395.95 1489.38 1403.48 1490.41 1406.18 1490.77 1408.52 1492.3 1411.07 1493.17 1416.9 1495.15 1415.01 1494.19 1421.71 1495.93 1424.68 1496.7 1429.35 1498.53 1432.34 1498.69 1447.51 1499.5 1462.71 1499.61 1477.9 1500.07 1479.93 1501.92 1482.46 1503.39 1483.98 1505.6 1487.49 1510.7 1484.04 1517.48 1482.46 1522.17 1481.66 1524.54 1481.57 1527.55 1479.42 1529.08 1476.66 1531.03 1463.37 1532.61 1459.68 1533.22 1457.14 1533.64 1454.62 1534.18 1452.08 1534.6 1449.05 1535.1 1445.99 1535.43 1442.97 1535.98 1440.92 1536.35 1438.96 1537.07 1436.89 1537.36 1425.08 1539.01 1413.97 1539.13 1401.96 1540.12 1397.9 1540.46 1393.84 1540.9 1389.81 1541.51 1386 1542.08 1382.79 1543.17 1379.18 1544.27 1369.05 1543.35 1358.97 1541.84 1348.8 1541.51 1340.85 1541.25 1336.38 1543.38 1329.06 1544.27 1324.01 1544.88 1318.93 1545.19 1313.87 1545.65 1310.28 1546.46 1303.67 1548.06 1300.2 1548.41 1298.19 1548.61 1296.15 1548.41 1294.12 1548.41L1294.12 1548.41" stroke="#042433" stroke-width="6.875" stroke-miterlimit="8" fill="none" fill-rule="evenodd"/><path d="M1306.21 1546.53 1306.21 1546.53C1301.15 1548.55 1296.31 1550.84 1291.04 1552.6 1289.17 1553.22 1286.83 1552.99 1284.97 1553.61 1280.7 1555.03 1277.36 1557.65 1272.83 1558.66 1271.32 1559 1269.78 1559.3 1268.28 1559.67 1265.73 1560.31 1263.32 1561.21 1260.7 1561.69 1257.73 1562.23 1254.63 1562.39 1251.59 1562.7 1226.18 1565.31 1254.61 1562.2 1231.87 1564.72 1223.84 1566.86 1224.14 1566.47 1216.7 1569.78 1209.08 1573.16 1211.87 1572.9 1203.05 1575.84 1201.62 1576.32 1200.02 1576.51 1198.5 1576.85 1200.69 1583.17 1198.19 1589.66 1207.6 1592.01 1210.02 1592.61 1212.66 1592.68 1215.19 1593.02 1219.74 1592.68 1224.32 1592.51 1228.84 1592.01 1240.41 1590.73 1223.92 1590.46 1242.49 1589.99 1266.25 1589.39 1290.02 1589.32 1313.79 1588.98 1322.89 1588.3 1332.09 1588.05 1341.1 1586.96 1343.32 1586.69 1345.09 1585.53 1347.16 1584.94 1348.63 1584.52 1350.2 1584.26 1351.72 1583.93 1361.25 1579.69 1350.61 1584.24 1365.37 1578.87 1367.96 1577.93 1370.36 1576.78 1372.95 1575.84 1375.93 1574.76 1379.07 1573.88 1382.05 1572.81 1385.64 1571.52 1389.08 1570.05 1392.67 1568.77 1395.66 1567.69 1398.81 1566.83 1401.78 1565.73 1410.35 1562.56 1401.94 1564.44 1412.39 1562.7 1414.42 1562.03 1416.34 1561.21 1418.46 1560.68 1420.41 1560.19 1422.71 1560.34 1424.53 1559.67 1427.36 1558.62 1429.22 1556.59 1432.12 1555.63 1436.41 1554.2 1441.48 1554.02 1445.77 1552.6 1447.79 1551.92 1449.74 1551.13 1451.84 1550.57 1454.81 1549.78 1458.02 1549.42 1460.94 1548.55 1462.6 1548.06 1463.82 1547.03 1465.49 1546.53 1470.23 1545.13 1475.62 1544.34 1480.66 1543.5 1486.49 1549.33 1485.44 1546.63 1479.14 1557.65 1477.13 1561.17 1474.69 1564.62 1471.56 1567.76 1470.55 1568.77 1469.81 1569.93 1468.52 1570.79 1467.23 1571.65 1465.49 1572.13 1463.97 1572.81 1462.96 1573.82 1462.37 1575.09 1460.94 1575.84 1444.73 1584.32 1447.19 1583.08 1432.12 1585.95 1429.59 1586.96 1427.03 1587.94 1424.53 1588.98 1422.98 1589.62 1421.61 1590.46 1419.98 1591 1418.55 1591.48 1416.95 1591.67 1415.43 1592.01 1406.81 1595.84 1413.33 1593.61 1397.22 1595.04 1391.41 1595.56 1386.25 1596.3 1380.54 1597.06 1379.02 1598.07 1377.62 1599.17 1375.99 1600.1 1372.69 1601.98 1368.97 1603.55 1365.37 1605.15 1356.69 1604.19 1344.49 1602.65 1336.55 1603.13 1331.77 1603.42 1327.23 1604.79 1322.89 1606.16 1316.7 1608.11 1297.62 1616.49 1292.55 1619.3 1289.52 1620.98 1286.86 1623.03 1283.45 1624.35 1280.69 1625.42 1277.21 1625.42 1274.35 1626.37 1268.07 1628.47 1262.37 1631.28 1256.15 1633.45 1251.73 1634.99 1247.14 1636.3 1242.49 1637.49 1240.55 1637.99 1236.42 1638.5 1236.42 1638.5L1236.42 1638.5" stroke="#042433" stroke-width="6.875" stroke-miterlimit="8" fill="none" fill-rule="evenodd"/><path d="M1237.5 1643.3 1237.5 1643.3C1239.02 1647.03 1239.4 1651.35 1242.06 1654.5 1243.35 1656.02 1246.14 1655.35 1248.15 1655.9 1251.22 1656.75 1254.23 1657.77 1257.27 1658.7 1258.79 1659.17 1260.25 1659.86 1261.83 1660.1L1270.96 1661.5C1279.07 1661.03 1287.25 1661.21 1295.29 1660.1 1297.53 1659.79 1299.27 1658.08 1301.38 1657.3 1304.35 1656.2 1307.43 1655.35 1310.5 1654.5 1312.5 1653.95 1314.58 1653.65 1316.58 1653.1 1319.65 1652.25 1322.56 1650.88 1325.71 1650.3 1328.24 1649.83 1330.79 1649.42 1333.31 1648.9 1335.35 1648.48 1337.39 1648.03 1339.4 1647.5 1340.94 1647.09 1342.39 1646.42 1343.96 1646.1 1346.97 1645.48 1350.04 1645.17 1353.08 1644.7 1355.62 1643.77 1357.99 1642.29 1360.69 1641.9 1370.55 1640.47 1375.71 1640.5 1383.5 1640.5L1383.5 1640.5" stroke="#042433" stroke-width="6.875" stroke-miterlimit="8" fill="none" fill-rule="evenodd"/><path d="M1465.63 1574.5 1465.63 1574.5C1472.72 1575.41 1480.11 1575.2 1486.9 1577.24 1488.42 1577.7 1488.42 1579.92 1488.42 1581.36 1488.42 1585.96 1489.01 1590.9 1486.9 1595.09 1486.04 1596.81 1482.77 1595.78 1480.83 1596.46 1473.63 1598.99 1459.55 1604.7 1459.55 1604.7 1458.03 1606.07 1456.94 1608 1454.99 1608.81 1452.69 1609.77 1439.04 1613.23 1433.72 1614.3 1431.19 1614.81 1428.59 1615.01 1426.12 1615.68 1423.5 1616.38 1421.05 1617.51 1418.52 1618.42 1414.97 1622.08 1411.29 1625.64 1407.88 1629.4 1406.72 1630.68 1406.33 1632.56 1404.84 1633.52 1402.62 1634.95 1399.81 1635.42 1397.24 1636.26 1394.23 1637.25 1391.07 1637.87 1388.12 1639.01 1383.96 1640.62 1375.97 1644.5 1375.97 1644.5 1364.31 1644.04 1352.61 1644.25 1341.01 1643.13 1335.79 1642.62 1326.54 1636.2 1322.78 1634.89 1319.9 1633.89 1316.66 1634.15 1313.66 1633.52 1299.88 1630.65 1307.07 1630.77 1301.5 1630.77L1301.5 1630.77" stroke="#042433" stroke-width="6.875" stroke-miterlimit="8" fill="none" fill-rule="evenodd"/><path d="M729.5 1554.5 729.5 1554.5C733.558 1558.67 737.171 1563.24 741.674 1567.01 744.036 1568.98 754.934 1572.12 756.891 1572.56 758.92 1573.03 761.108 1573.1 762.978 1573.95 764.262 1574.54 765.007 1575.81 766.022 1576.73L828.413 1600.36 1103.85 1629.54C1107.91 1627.69 1111.49 1624.13 1116.02 1623.98 1126.27 1623.65 1136.32 1626.73 1146.46 1628.15 1149.51 1628.58 1152.56 1628.99 1155.59 1629.54L1170.8 1632.32 1178.41 1633.71C1180.44 1635.1 1182.3 1636.73 1184.5 1637.88 1186.32 1638.83 1193.67 1640.27 1195.15 1640.66 1196.69 1641.06 1198.24 1641.47 1199.72 1642.05 1201.8 1642.86 1203.63 1644.23 1205.8 1644.83 1212.53 1646.67 1233.6 1647.43 1236.24 1647.6 1238.27 1648.07 1240.31 1648.47 1242.33 1648.99 1243.87 1649.4 1245.3 1650.18 1246.89 1650.38 1248.9 1650.65 1250.95 1650.38 1252.98 1650.38L1254.5 1650.38" stroke="#042433" stroke-width="6.875" stroke-miterlimit="8" fill="none" fill-rule="evenodd"/><path d="M1863.5 1545.5 1884.5 1545.5" stroke="#042433" stroke-width="6.875" stroke-miterlimit="8" fill="none" fill-rule="evenodd"/><path d="M1400.5 1633.5 1400.5 1633.5C1408.18 1630.94 1410.91 1630.63 1416.96 1627.18 1419.39 1625.79 1421.48 1623.49 1424.55 1623.39 1449.86 1622.59 1475.19 1622.55 1500.51 1622.13 1504.3 1620.86 1508.06 1619.46 1511.9 1618.34 1515.24 1617.36 1518.78 1617.05 1522.03 1615.81 1525.54 1614.46 1533.02 1608.42 1535.95 1606.96 1543.03 1603.43 1545.56 1603.27 1552.41 1601.91 1575.24 1592.79 1550.36 1601.88 1609.37 1598.12 1612.44 1597.92 1615.24 1596.28 1618.23 1595.59 1620.74 1595.01 1623.3 1594.75 1625.83 1594.32 1627.1 1593.48 1628.23 1592.4 1629.63 1591.8 1631.23 1591.11 1633.02 1591.03 1634.69 1590.53 1637.25 1589.77 1639.83 1589.06 1642.29 1588.01 1648.95 1585.16 1652.97 1581.74 1660.01 1580.42 1664.57 1579.57 1687.97 1578.07 1690.39 1577.9 1692.51 1577.54 1701.84 1576.08 1704.32 1575.37 1708.16 1574.27 1712.02 1573.13 1715.71 1571.58 1720.06 1569.75 1724.1 1567.27 1728.37 1565.26 1732.12 1563.48 1736.15 1562.26 1739.76 1560.2 1742.11 1558.86 1743.74 1556.49 1746.09 1555.15 1749.7 1553.09 1753.77 1551.95 1757.48 1550.09 1759.68 1548.99 1761.61 1547.4 1763.81 1546.3 1765.84 1545.29 1768.05 1544.67 1770.14 1543.77 1773.96 1542.14 1777.77 1540.47 1781.53 1538.72 1784.1 1537.52 1786.5 1535.98 1789.13 1534.93 1790.75 1534.28 1792.53 1534.18 1794.19 1533.66 1798.02 1532.49 1801.74 1530.97 1805.59 1529.87 1807.66 1529.28 1809.83 1529.13 1811.92 1528.61 1816.58 1527.45 1821.28 1526.34 1825.84 1524.82 1827.63 1524.22 1829.14 1522.95 1830.9 1522.29 1838.37 1519.5 1833.88 1523.11 1838.5 1518.5L1838.5 1518.5" stroke="#042433" stroke-width="6.875" stroke-miterlimit="8" fill="none" fill-rule="evenodd"/><path d="M1264.11 398.243 1264.11 398.243C1260.54 395.189 1257.37 391.601 1253.41 389.081 1251.64 387.954 1249.29 388.218 1247.3 387.554 1244.7 386.688 1242.21 385.518 1239.66 384.5 1231.51 385.009 1223.34 385.215 1215.22 386.027 1213.13 386.236 1210.88 386.442 1209.1 387.554 1206.66 389.08 1205.18 391.788 1202.99 393.662 1200.21 396.044 1188.33 402.4 1187.71 402.824 1182.93 406.112 1178.75 410.225 1173.96 413.513 1157.95 424.517 1168.8 415.696 1157.16 422.675 1154.01 424.564 1151.12 426.86 1147.99 428.783 1144.49 430.934 1140.56 432.408 1137.3 434.891 1127.79 442.107 1118.93 450.125 1109.79 457.796 1106.2 460.814 1101.51 462.934 1099.1 466.958 1097.57 469.503 1096.16 472.124 1094.52 474.593 1086.9 486.006 1086.79 483.931 1080.77 495.971 1080.04 497.411 1079.8 499.045 1079.24 500.552 1078.27 503.119 1076.92 505.548 1076.18 508.187 1069.95 530.422 1069.28 535.037 1065.49 553.997 1066.51 562.65 1067.17 571.353 1068.54 579.956 1070.51 592.257 1071.7 590.52 1074.65 601.334 1078.21 614.358 1073.64 603.878 1079.24 615.077 1077.71 627.802 1077.48 640.75 1074.65 653.252 1073.84 656.832 1070.43 659.266 1068.54 662.414 1063.91 670.127 1064.96 672.118 1060.9 682.265 1057.6 690.518 1053.75 698.545 1050.21 706.697 1048.66 710.251 1045.62 717.386 1045.62 717.386 1045.12 720.44 1044.51 723.479 1044.1 726.548 1043.49 731.116 1043.42 735.76 1042.57 740.291 1041.89 743.933 1040.53 747.416 1039.51 750.979 1039 755.56 1038.69 760.167 1037.99 764.722 1037.67 766.797 1036.91 768.782 1036.46 770.831 1035.89 773.364 1035.38 775.909 1034.93 778.465 1033.85 784.563 1032.89 790.681 1031.87 796.789L1030.35 805.951C1028.44 878.172 1035 843.284 1024.23 877.72 1021.53 886.378 1021.65 889.992 1016.6 897.571 1015.4 899.368 1013.44 900.527 1012.01 902.152 1009.86 904.605 1008.13 907.404 1005.9 909.787 1000.99 915.05 994.328 918.885 990.622 925.057 989.095 927.602 987.613 930.175 986.039 932.692 985.066 934.249 981.147 937.273 982.983 937.273 990.774 937.273 998.261 934.219 1005.9 932.692 1007.94 931.674 1009.88 930.437 1012.01 929.638 1030.39 922.748 1018.59 939.813 1019.65 966.286 1026.78 964.25 1033.64 959.788 1041.04 960.178 1044.64 960.367 1047.34 964.471 1048.68 967.813 1050.58 972.563 1049.61 978.003 1050.21 983.083 1051.63 995.158 1054.02 1005.93 1056.32 1018.2 1058.87 1017.7 1062.03 1014.94 1063.96 1016.68 1068.19 1020.48 1069.48 1026.66 1071.6 1031.95 1073.57 1036.88 1074.5 1042.18 1076.18 1047.22 1077.05 1049.82 1078.27 1052.29 1079.24 1054.85 1079.8 1056.36 1080.26 1057.91 1080.77 1059.43 1081.27 1064.52 1081.18 1069.71 1082.29 1074.7 1084.33 1083.85 1085.81 1085.32 1089.93 1091.5 1123.37 1059.75 1111.49 1073.27 1128.13 1053.32 1127.62 1048.74 1126.03 1044.16 1126.6 1039.58 1127.08 1035.74 1129.54 1032.41 1131.18 1028.89 1143.76 1001.96 1129.93 1032.31 1146.46 1002.93 1162.38 974.65 1143.87 1003 1154.1 987.664 1154.61 976.975 1152.69 965.886 1155.63 955.597 1157.01 950.752 1162.05 947.579 1166.32 944.908 1170.42 942.349 1175.61 942.166 1180.07 940.327 1200.47 931.935 1184.13 935.579 1201.46 932.692 1202.99 931.674 1204.41 930.459 1206.05 929.638 1208.5 928.412 1211.75 928.522 1213.69 926.584 1215.63 924.646 1215.78 921.516 1216.74 918.949 1219.36 911.964 1217.52 915.853 1219.8 906.733 1220.7 903.138 1221.2 899.358 1222.85 896.044 1224.31 893.129 1226.49 890.53 1228.97 888.409 1230.19 887.362 1232.02 887.391 1233.55 886.882 1249.71 890.921 1230.68 885.438 1244.24 891.463 1247.19 892.771 1250.36 893.499 1253.41 894.517 1254.94 895.026 1256.55 895.324 1257.99 896.044 1278.27 906.176 1252.95 893.883 1268.69 900.625 1275.1 903.37 1275.92 904.642 1282.44 908.26 1284.43 909.366 1286.51 910.296 1288.55 911.314 1290.08 912.841 1291.48 914.512 1293.14 915.895 1295.23 917.641 1304.16 922.784 1305.36 923.53 1309.79 926.3 1310.83 927.682 1316.05 929.638 1332.7 935.876 1311.26 925.716 1328.28 934.219 1333.37 933.71 1338.5 933.47 1343.55 932.692 1347.28 932.119 1350.96 929.518 1354.25 928.111 1355.73 927.477 1357.3 927.093 1358.83 926.584 1361.38 924.548 1363.68 922.153 1366.47 920.476 1368.82 919.066 1371.7 918.735 1374.11 917.422 1377.33 915.665 1380.22 913.35 1383.28 911.314 1384.3 909.787 1385.03 908.031 1386.33 906.733 1388.64 904.428 1393.97 900.625 1393.97 900.625L1395.5 903.679" stroke="#042433" stroke-width="6.875" stroke-miterlimit="8" fill="none" fill-rule="evenodd"/><path d="M1477.5 792.5 1477.5 792.5C1476.99 806.257 1476.76 820.027 1475.98 833.771 1475.75 837.872 1474.87 841.913 1474.47 846 1473.86 852.105 1473.62 858.245 1472.95 864.343 1472.05 872.537 1470.82 876.083 1468.4 884.214 1466.9 889.252 1466.39 889.247 1465.37 894.914 1464.73 898.459 1464.44 902.06 1463.85 905.614 1463.43 908.177 1462.73 910.689 1462.33 913.257 1461.71 917.317 1461.81 921.5 1460.82 925.486 1460.27 927.696 1458.8 929.562 1457.78 931.6 1456.77 936.695 1455.91 941.823 1454.75 946.886 1454.39 948.456 1453.95 950.03 1453.24 951.471 1452.42 953.115 1451.21 954.529 1450.2 956.057 1446.54 974.494 1444.83 976.507 1448.69 998.857 1449.19 1001.78 1451.72 1003.95 1453.24 1006.5 1454.91 1001.43 1454.75 1003.53 1454.75 1000.39L1454.75 1000.39" stroke="#042433" stroke-width="6.875" stroke-miterlimit="8" fill="none" fill-rule="evenodd"/><path d="M1224.5 894.5 1224.5 894.5C1227.04 898.574 1229.82 902.503 1232.11 906.72 1232.88 908.134 1232.86 909.896 1233.64 911.303 1235.41 914.513 1238.57 916.985 1239.73 920.469 1243.55 931.988 1238.39 917.789 1244.3 929.634 1245.01 931.074 1244.93 932.877 1245.82 934.217 1247.01 936.014 1248.97 937.174 1250.39 938.8 1254.38 943.377 1257.62 948.823 1262.57 952.548 1265.58 954.813 1269.7 955.951 1273.23 957.131 1275.26 959.168 1277.56 960.968 1279.32 963.241 1281.14 965.585 1282.45 968.284 1283.89 970.879 1286.93 976.384 1287.56 978.558 1289.98 984.627 1289.47 1003.47 1288.45 1022.3 1288.45 1041.15 1288.45 1053.89 1288.75 1066.66 1289.98 1079.34 1290.29 1082.54 1291.79 1085.53 1293.02 1088.5 1294.23 1091.41 1299.91 1102.49 1302.16 1105.31 1304.4 1108.12 1307.23 1110.4 1309.77 1112.94 1311.3 1116 1312.56 1119.2 1314.34 1122.11 1316.63 1125.84 1319.75 1129.02 1321.95 1132.8 1323.33 1135.17 1324.04 1137.87 1325 1140.44 1327.01 1145.81 1326.75 1146.15 1328.05 1152.66 1328.55 1169.47 1328.31 1186.31 1329.57 1203.07 1329.84 1206.77 1331.84 1210.14 1332.61 1213.77 1333.37 1217.29 1333.55 1220.91 1334.14 1224.46 1334.56 1227.02 1335.27 1229.53 1335.66 1232.1 1336.64 1238.52 1337.2 1246.96 1338.7 1253.48 1339.54 1257.09 1340.78 1260.6 1341.75 1264.18 1344.56 1274.51 1341.68 1266.29 1346.32 1277.92 1346.83 1282.51 1347.04 1287.13 1347.84 1291.67 1350.55 1307.08 1349.98 1299.65 1353.93 1311.53 1354.59 1313.52 1354.88 1315.62 1355.45 1317.64 1355.9 1319.19 1356.47 1320.7 1356.98 1322.22 1358.56 1336.48 1358.5 1331.36 1358.5 1337.5L1358.5 1337.5" stroke="#042433" stroke-width="6.875" stroke-miterlimit="8" fill="none" fill-rule="evenodd"/><path d="M1464.36 912.5 1464.36 912.5C1461.31 917.084 1458.54 921.87 1455.21 926.252 1450.39 932.58 1443.89 937.68 1439.95 944.587 1435.28 952.762 1433.98 956.328 1427.74 962.923 1420.81 970.243 1410.88 975.295 1406.38 984.314 1405.36 986.352 1404.59 988.531 1403.33 990.426 1393.85 1004.66 1390.59 998.798 1380.44 1022.51 1378.91 1026.08 1377.18 1029.56 1375.86 1033.21 1374.46 1037.06 1373.39 1045.01 1372.81 1048.49 1372.3 1057.66 1372.33 1066.87 1371.28 1075.99 1370.8 1080.16 1369.11 1084.11 1368.23 1088.22 1367.58 1091.24 1367.07 1094.31 1366.7 1097.38 1362.53 1132.94 1367.4 1101.21 1363.65 1121.83 1363.1 1124.88 1363.02 1128.03 1362.13 1131 1361.47 1133.18 1360.03 1135.04 1359.08 1137.11 1356.98 1141.66 1355.01 1146.28 1352.97 1150.86 1352.46 1155.45 1352.1 1160.05 1351.45 1164.61 1351.08 1167.18 1349.92 1169.66 1349.92 1172.25 1349.92 1182.96 1350.42 1193.68 1351.45 1204.34 1351.95 1209.51 1354.5 1219.62 1354.5 1219.62 1354.41 1221.14 1353.62 1249.64 1351.45 1257.82 1350.33 1262.02 1348.31 1265.94 1346.87 1270.04 1345.26 1274.6 1339.4 1287.66 1342.29 1283.79 1354 1268.16 1355.66 1259.04 1360.6 1242.54 1356.97 1212.24 1351.12 1201.78 1363.65 1173.78 1366.61 1167.17 1381.88 1155.4 1386.54 1149.33 1395.07 1138.23 1387.54 1143.17 1394.17 1135.58 1411.63 1115.6 1392.34 1138.24 1409.43 1123.36 1418.93 1115.08 1428.92 1107.14 1436.9 1097.38 1451.02 1080.09 1450.57 1079.51 1467.41 1063.77 1469.27 1062.03 1471.72 1060.99 1473.52 1059.18 1475.31 1057.38 1476.2 1054.78 1478.09 1053.07 1481.35 1050.14 1485.37 1048.19 1488.78 1045.43 1496.06 1039.52 1502.63 1032.73 1510.14 1027.1 1529.92 1012.24 1524.22 1019.7 1531.5 1008.76 1530.99 1007.23 1530.87 1005.52 1529.97 1004.18 1526.71 999.273 1525.62 999.668 1520.82 998.066 1518.78 996.029 1516.61 994.122 1514.72 991.954 1502.01 977.416 1516.04 991.758 1507.09 982.786L1507.09 982.786" stroke="#042433" stroke-width="6.875" stroke-miterlimit="8" fill="none" fill-rule="evenodd"/><path d="M1029.04 859.5 1029.04 859.5C1021.9 863.066 1014.82 866.769 1007.61 870.198 1004.11 871.865 1000.02 872.473 996.9 874.782 986.139 882.742 977.002 892.74 966.289 900.763 964.248 902.291 962.25 903.879 960.167 905.348 953.576 909.993 945.222 912.744 940.27 919.102 933.127 928.272 926.571 937.928 918.842 946.611 914.761 951.196 910.195 955.392 906.598 960.365 903.523 964.617 901.729 969.672 898.945 974.12 893.293 983.149 891.022 983.829 886.701 992.459 884.167 997.519 882.483 1004.04 880.579 1009.27 876.011 1021.81 877.391 1014.36 872.926 1032.19 866.926 1056.16 873.065 1039.49 866.804 1055.12 863.914 1081.09 867.885 1056.54 859.151 1084.15 857.734 1088.63 857.168 1093.34 856.09 1097.91 855.127 1102 854.185 1106.1 853.029 1110.14 852.142 1113.23 851.513 1116.48 849.968 1119.3 848.403 1122.17 845.886 1124.4 843.846 1126.95 842.315 1132.04 841.124 1137.25 839.254 1142.23 838.052 1145.43 835.891 1148.21 834.662 1151.4 828.189 1168.2 834.219 1155.93 830.071 1169.74 829.281 1172.36 828.03 1174.83 827.01 1177.38 823.457 1202.21 828.021 1174.87 822.418 1197.25 821.154 1202.3 820.328 1212.27 819.357 1217.11 819.27 1217.55 816.336 1230.48 814.766 1233.92 812.877 1238.07 811.381 1242.51 808.643 1246.15 802.521 1254.3 794.84 1261.49 790.277 1270.6 787.726 1275.7 784.428 1280.48 782.624 1285.89 782.114 1287.41 782.031 1289.16 781.093 1290.47 771.951 1303.25 778.469 1291.56 770.38 1299.64 767.562 1302.45 765.458 1305.91 762.727 1308.81 757.288 1314.58 751.503 1320.02 745.891 1325.62L741.3 1330.2C739.769 1331.73 738.007 1333.06 736.708 1334.79L732.116 1340.9C731.606 1342.43 731.253 1344.02 730.586 1345.49 728.697 1349.64 724.464 1357.71 724.464 1357.71 721.057 1371.32 725.458 1355.99 715.28 1377.58 708.797 1391.34 711.894 1388.65 707.628 1403.56 706.873 1406.2 705.587 1408.66 704.567 1411.2 702.767 1423.78 701.302 1428.63 704.567 1443.3 705.12 1445.78 707.846 1447.23 709.158 1449.41 711.338 1453.04 714.145 1458.63 715.28 1463.16 715.911 1465.68 716.301 1468.26 716.811 1470.8 715.28 1487.11 714.475 1503.49 712.219 1519.71 711.905 1521.97 709.758 1523.62 709.158 1525.82 703.115 1547.95 713.063 1525.67 703.036 1545.69 702.526 1548.75 698.73 1553.47 701.505 1554.86 711.453 1559.83 714.87 1552.42 718.342 1547.22 719.362 1543.65 720.501 1540.12 721.402 1536.52 722.543 1531.96 722.976 1527.22 724.464 1522.77 730.257 1505.41 730.719 1512.15 738.238 1495.26 748.585 1472.01 738.179 1488.47 745.891 1476.92 746.912 1471.82 746.275 1466.09 748.952 1461.64 750.483 1459.09 752.213 1456.65 753.544 1453.99 755.791 1449.51 757.203 1444.61 759.666 1440.24 762.431 1435.33 777.506 1416.44 779.563 1414.26 783.28 1410.32 787.833 1407.25 791.807 1403.56 794.98 1400.62 797.574 1397.05 800.991 1394.39 806.799 1389.88 813.091 1386.02 819.357 1382.17 833.854 1373.26 835.898 1372.38 846.907 1366.88 852.009 1367.39 857.193 1367.37 862.212 1368.41 869.484 1369.92 876.286 1373.48 883.64 1374.52L894.354 1376.05C903.123 1378.97 895.198 1375.37 903.537 1383.69 905.847 1386 908.781 1387.6 911.19 1389.81 924.737 1402.21 916.571 1398.73 926.495 1402.03 928.535 1403.56 930.402 1405.35 932.617 1406.62 934.017 1407.42 935.866 1407.25 937.208 1408.15 948.672 1415.78 935.475 1410.63 946.392 1414.26 944.795 1412.2 920.607 1377.99 909.659 1369.94 903.953 1365.74 891.292 1359.24 891.292 1359.24 882.826 1348.67 874.731 1341.98 909.659 1356.19 916.085 1358.8 920.61 1364.74 926.495 1368.41 936.84 1374.87 934.12 1367.04 944.861 1379.11 950.22 1385.13 952.183 1394.14 958.636 1398.98 966.49 1404.86 962.954 1401.76 969.35 1408.15 961.389 1382.31 966.709 1391.34 947.922 1368.41 943.059 1362.48 937.869 1353.86 929.556 1351.6 926.075 1350.65 922.413 1350.58 918.842 1350.07 915.781 1349.05 906.495 1346.38 909.659 1347.02 917.91 1348.66 926.915 1348.84 934.148 1353.13 946.276 1360.33 955.547 1371.5 966.289 1380.64 969.322 1383.22 975.472 1388.28 975.472 1388.28 977.802 1395.26 978.303 1397.95 984.655 1405.09 985.727 1406.29 987.717 1406.11 989.247 1406.62 986.186 1402.54 982.542 1398.84 980.064 1394.39 974.855 1385.03 975.128 1371.42 966.289 1365.35 958.126 1359.75 950.905 1352.44 941.8 1348.54 938.229 1347.02 934.814 1345.05 931.086 1343.96 925.491 1342.32 902.069 1338.62 897.415 1337.85 893.333 1336.32 889.382 1334.38 885.17 1333.26 881.685 1332.33 877.683 1333.34 874.457 1331.73 870.249 1329.63 867.174 1325.78 863.743 1322.56 859.005 1318.13 855.038 1312.86 849.968 1308.81 847.295 1306.67 837.521 1303.2 840.784 1304.22 853.711 1308.3 866.386 1313.14 879.048 1317.98 885.05 1320.27 898.317 1327.18 905.067 1328.68 910.072 1329.79 915.271 1329.7 920.373 1330.2 929.556 1333.26 939.461 1334.68 947.922 1339.37 964.41 1348.52 956.516 1346.15 970.881 1348.54 972.921 1351.09 973.781 1356.72 977.003 1356.19 982.352 1355.29 985.412 1349.32 989.247 1345.49 993.591 1341.15 997.617 1336.49 1001.49 1331.73 1008.91 1322.62 1007.3 1321.55 1015.27 1314.92 1019.19 1311.66 1022.85 1307.82 1027.51 1305.75 1032.26 1303.64 1042.82 1302.7 1042.82 1302.7 1043.33 1297.6 1043.78 1292.5 1044.35 1287.41 1044.8 1283.33 1045.99 1279.29 1045.88 1275.19 1045.19 1251.23 1043.73 1241.24 1041.29 1221.7 1035.65 1228.73 1031.96 1232.25 1029.04 1241.57 1027.81 1245.49 1028.02 1249.72 1027.51 1253.79 1028.02 1262.96 1026.89 1272.37 1029.04 1281.3 1030.07 1285.56 1034.32 1288.31 1036.69 1292 1040.79 1298.36 1043.55 1303.37 1045.88 1310.34 1046.96 1313.57 1048.33 1321.07 1048.94 1324.09 1048.43 1328.68 1048.06 1333.28 1047.41 1337.85 1046.53 1343.98 1044.35 1356.19 1044.35 1356.19 1045.3 1374.19 1041.4 1383.22 1052 1395.92 1054.55 1398.98 1058.12 1401.01 1061.18 1403.56 1062.71 1406.62 1064.6 1409.52 1065.77 1412.73 1067.27 1416.83 1068.32 1429.77 1068.83 1432.6 1071.17 1445.43 1070.37 1426.35 1070.37 1444.82L1070.37 1444.82" stroke="#042433" stroke-width="6.875" stroke-miterlimit="8" fill="none" fill-rule="evenodd"/><path d="M1564.5 841.5 1564.5 841.5C1570.1 844.046 1575.64 846.75 1581.31 849.137 1585.33 850.825 1589.6 851.879 1593.54 853.719 1597.27 855.455 1600.57 857.993 1604.24 859.829 1606.7 861.055 1609.36 861.804 1611.89 862.883 1628.96 870.193 1620.19 867.631 1631.76 870.52 1649.3 888.045 1617.75 857.49 1645.52 879.684 1648.06 881.721 1648.99 885.404 1651.63 887.321 1654.77 889.602 1658.86 890.17 1662.33 891.904 1669.2 895.334 1673.3 898.868 1679.15 904.123 1681.29 906.049 1683.22 908.196 1685.26 910.232 1678.32 915.435 1678.04 915.191 1671.5 922.451 1669.32 924.875 1667.69 927.783 1665.39 930.088 1662.57 932.9 1659.27 935.179 1656.22 937.725 1656.73 939.252 1656.74 941.05 1657.74 942.307 1658.89 943.741 1660.86 944.261 1662.33 945.362 1664.94 947.318 1667.52 949.325 1669.97 951.472 1671.6 952.894 1672.94 954.619 1674.56 956.054 1677.53 958.695 1680.83 960.965 1683.73 963.691 1689.5 969.119 1696.15 973.902 1700.55 980.492 1710.74 995.765 1705.13 991.183 1714.3 997.293 1715.32 998.82 1716.73 1000.15 1717.36 1001.88 1721.72 1013.85 1719.93 1016.27 1721.95 1029.37 1723.21 1037.56 1724.42 1045.79 1726.53 1053.81 1727 1055.58 1728.77 1056.75 1729.59 1058.39 1731.83 1062.87 1733.77 1067.51 1735.7 1072.13 1738.87 1079.73 1738.03 1090.48 1744.88 1095.05 1746.4 1096.06 1747.84 1097.23 1749.46 1098.1 1754.48 1100.8 1764.75 1105.74 1764.75 1105.74 1766.78 1108.79 1769.41 1111.53 1770.86 1114.9 1776.6 1128.29 1776.29 1166.15 1776.98 1169.89 1778.41 1177.64 1784.49 1184.99 1789.2 1191.27 1791.01 1200.3 1791.97 1206.02 1795.32 1215.71 1798.53 1225 1802.02 1234.22 1806.02 1243.2 1808.06 1247.78 1810.46 1252.22 1812.13 1256.95 1813.53 1260.91 1813.86 1265.18 1815.19 1269.17 1821.12 1286.94 1819.28 1279.38 1824.36 1290.55 1833.76 1311.21 1823.3 1291.56 1839.65 1319.57 1838.12 1332.81 1836.67 1346.05 1835.06 1359.28 1834.63 1362.86 1834.29 1366.45 1833.53 1369.97 1832.76 1373.6 1831.5 1377.1 1830.48 1380.67 1829.46 1388.3 1827.42 1395.87 1827.42 1403.58 1827.42 1433.21 1826.88 1429.71 1833.53 1446.34 1834.04 1449.91 1834.19 1453.54 1835.06 1457.04 1835.73 1459.69 1837.16 1462.11 1838.12 1464.67 1841.74 1474.32 1845.2 1484.04 1848.82 1493.69 1848.83 1493.72 1854.93 1508.96 1854.93 1508.97 1858.6 1519.96 1854.15 1506.22 1857.99 1519.66 1858.43 1521.21 1859.06 1522.7 1859.52 1524.24 1860.59 1527.79 1861.56 1531.37 1862.58 1534.93 1863.09 1539 1867.78 1545.32 1864.11 1547.15 1860.19 1549.11 1856.77 1542.32 1853.41 1539.51 1842.32 1530.29 1839.28 1521.99 1832.01 1507.44 1827.52 1498.47 1825.34 1488.29 1819.78 1479.95L1798.38 1447.87C1796.34 1444.82 1794.65 1441.49 1792.26 1438.71 1789.2 1435.14 1785.91 1431.77 1783.09 1428.01 1771.83 1413.02 1772.47 1408.24 1757.1 1392.89 1752.07 1387.86 1750.66 1385.85 1743.35 1382.19 1740.46 1380.75 1737.23 1380.16 1734.17 1379.14 1728.57 1380.16 1722.85 1380.67 1717.36 1382.19 1714.8 1382.91 1700.2 1389.64 1697.49 1391.36 1694.74 1393.11 1692.56 1395.66 1689.85 1397.47 1684.9 1400.76 1679.56 1403.42 1674.56 1406.63 1668.16 1410.75 1657.49 1421.46 1651.63 1421.91L1631.76 1423.43C1623.1 1421.4 1614.3 1419.88 1605.77 1417.32 1604.01 1416.8 1600.97 1416.09 1601.19 1414.27 1602.13 1406.27 1605.09 1398.49 1608.83 1391.36 1610.84 1387.53 1614.77 1385.06 1618 1382.19 1619.37 1380.97 1623.89 1380.44 1622.59 1379.14 1621.1 1377.65 1618.51 1380.16 1616.47 1380.67 1612.91 1380.16 1606.96 1382.54 1605.77 1379.14 1592.12 1339.91 1616.62 1349.66 1599.66 1344.01 1600.87 1337.95 1602.4 1329.68 1604.24 1324.15 1605.47 1320.47 1607.39 1317.06 1608.83 1313.46 1611.09 1307.82 1612.21 1300.57 1613.42 1295.13 1616.66 1298.38 1623.34 1306.19 1628.7 1304.3 1641.76 1299.69 1644.42 1287.7 1651.63 1278.33 1653.83 1275.48 1656.83 1273.34 1659.27 1270.69 1662.95 1266.72 1666.24 1262.4 1669.97 1258.48 1679.22 1248.75 1693.53 1234.13 1705.13 1226.4 1724.88 1213.24 1714.99 1221.13 1734.17 1201.96 1735.7 1200.44 1737.79 1199.31 1738.76 1197.38 1739.78 1195.34 1744.08 1190.99 1741.82 1191.27 1732.49 1192.44 1724.75 1199.99 1718.89 1206.54 1712.62 1213.54 1708.06 1222.29 1700.55 1227.93 1698.51 1229.45 1696.23 1230.71 1694.43 1232.51 1692.63 1234.31 1691.71 1236.88 1689.85 1238.62 1684.03 1244.05 1677.13 1248.27 1671.5 1253.89 1667.62 1257.77 1662.81 1263.3 1657.74 1266.11 1650.56 1270.1 1642.78 1270.52 1634.82 1272.22 1629.95 1273.26 1622.16 1275.62 1618 1276.8 1616.47 1275.79 1613.31 1275.58 1613.42 1273.75 1614.97 1245.74 1617.07 1256.75 1624.12 1241.67 1629.68 1229.75 1629.41 1229.69 1631.76 1220.29 1629.93 1211.14 1629.85 1209.11 1625.64 1198.91 1620.51 1186.45 1617.83 1186.18 1613.42 1172.94 1610.65 1164.66 1609.91 1155.57 1608.83 1146.98 1609.34 1142.9 1609.23 1138.7 1610.36 1134.76 1611.3 1131.47 1613.34 1128.61 1614.94 1125.59 1625 1106.76 1620.08 1118.12 1625.64 1104.21 1627.5 1078.21 1627.88 1086.72 1625.64 1059.92 1624.39 1044.89 1625.48 1049.59 1621.06 1038.53 1621.79 1023.92 1620.14 1010.65 1625.64 997.293 1627.81 992.03 1631.17 987.304 1633.29 982.019 1635.26 977.084 1636.41 971.856 1637.87 966.745 1639.92 959.597 1637.8 962.237 1640.93 959.109L1640.93 959.109" stroke="#042433" stroke-width="6.875" stroke-miterlimit="8" fill="none" fill-rule="evenodd"/><path d="M451.5 1540.5 701.5 1539.5" stroke="#042433" stroke-width="6.875" stroke-miterlimit="8" fill="none" fill-rule="evenodd"/><path d="M1144.5 681C1144.5 652.005 1170.92 628.5 1203.5 628.5 1236.08 628.5 1262.5 652.005 1262.5 681 1262.5 709.995 1236.08 733.5 1203.5 733.5 1170.92 733.5 1144.5 709.995 1144.5 681Z" stroke="#042433" stroke-width="6.875" stroke-miterlimit="8" fill="none" fill-rule="evenodd"/><path d="M1323.5 668C1323.5 639.005 1350.14 615.5 1383 615.5 1415.86 615.5 1442.5 639.005 1442.5 668 1442.5 696.995 1415.86 720.5 1383 720.5 1350.14 720.5 1323.5 696.995 1323.5 668Z" stroke="#042433" stroke-width="6.875" stroke-miterlimit="8" fill="none" fill-rule="evenodd"/><path d="M1644.5 1428.5 1644.5 1428.5C1627.72 1433.66 1640.37 1429.54 1625.58 1434.9 1624.02 1435.47 1622.33 1435.8 1620.85 1436.5 1619.47 1437.15 1618.37 1438.16 1617.06 1438.9 1615.53 1439.76 1613.82 1440.39 1612.33 1441.3 1610.34 1442.53 1608.67 1444.11 1606.66 1445.3 1605.5 1445.98 1604.1 1446.31 1602.87 1446.9 1599.88 1448.35 1591.95 1453.73 1591.52 1454.1 1582.21 1461.97 1589.46 1456.29 1582.06 1461.3 1580.13 1462.6 1578.4 1464.11 1576.38 1465.3 1575.22 1465.98 1573.83 1466.33 1572.6 1466.9 1570.36 1467.93 1568.14 1468.97 1565.97 1470.1 1564.04 1471.11 1562.16 1472.2 1560.3 1473.3 1559 1474.06 1557.95 1475.16 1556.51 1475.7 1555.04 1476.25 1553.36 1476.23 1551.78 1476.5 1546.1 1476.23 1540.4 1476.27 1534.75 1475.7 1532.47 1475.47 1530.31 1474.71 1528.13 1474.1 1526.52 1473.65 1524.99 1473 1523.4 1472.5 1522.46 1472.2 1521.51 1471.97 1520.56 1471.7 1511.1 1471.97 1501.61 1471.82 1492.18 1472.5 1490.48 1472.62 1489.06 1473.65 1487.45 1474.1 1487.15 1474.18 1486.82 1474.1 1486.5 1474.1L1486.5 1474.1" stroke="#042433" stroke-width="6.875" stroke-miterlimit="8" fill="none" fill-rule="evenodd"/></g></svg>