<svg width="1810" height="1480" xmlns="http://www.w3.org/2000/svg" xmlns:xlink="http://www.w3.org/1999/xlink" xml:space="preserve" overflow="hidden"><g transform="translate(-665 -379)"><path d="M1272.45 1700.79 1258.22 1657.17C1263.47 1653.68 1267.74 1651.11 1272.45 1647.35 1274.67 1645.58 1276.64 1643.48 1279.01 1641.9 1288.35 1635.7 1282.49 1641.19 1291.05 1636.45 1292.64 1635.56 1295.42 1633.18 1295.42 1633.18L1558 1619 1528.46 1798.93 1508.77 1832.73 1490.17 1848 1483.6 1839.28 1274.63 1738.95 1245.09 1709.51 1244 1678.98 1269.16 1653.9 1298.7 1633.18" fill="#AEAEAE" fill-rule="evenodd"/><path d="M1505 678C1505 648.729 1531.42 625 1564 625 1596.58 625 1623 648.729 1623 678 1623 707.271 1596.58 731 1564 731 1531.42 731 1505 707.271 1505 678Z" fill="#A6CAEC" fill-rule="evenodd"/><path d="M1323 690C1323 660.729 1349.42 637 1382 637 1414.58 637 1441 660.729 1441 690 1441 719.271 1414.58 743 1382 743 1349.42 743 1323 719.271 1323 690Z" fill="#A6CAEC" fill-rule="evenodd"/><path d="M1531 1852 1578.13 1743.96 1625.26 1351.43 1654.27 1293.81 2470 1265 2386.61 1729.56 1741.28 1819.59 1531 1852Z" fill="#F6E5DA" fill-rule="evenodd"/><path d="M1157.5 927.5 1157.5 927.5 1124.9 935.605C1121.59 936.391 1118.04 936.535 1114.87 937.631 1112.1 938.591 1110.21 940.914 1107.35 941.684 1102.52 942.983 1097.26 942.819 1092.3 943.711 1089.72 944.174 1087.37 945.318 1084.78 945.737 1078.98 946.674 1073.02 946.827 1067.22 947.763 1056.29 949.531 1045.49 951.816 1034.62 953.842 1028.77 959.921 1022.79 965.919 1017.07 972.08 1015.26 974.028 1013.24 975.92 1012.05 978.159 1010.7 980.718 1010.64 983.622 1009.55 986.264 1008.12 989.714 1006.2 993.018 1004.53 996.396 1003.69 1001.12 1001.8 1005.81 1002.02 1010.58 1002.77 1026.96 1005.72 1046.26 1009.55 1063.26 1010.31 1066.65 1011.22 1070.02 1012.05 1073.4 1008.25 1193.41 1015.23 1116.21 1004.53 1176.74 1003.61 1181.96 1002.35 1198.24 999.515 1205.11 998.333 1207.97 996.172 1210.51 994.5 1213.21 995.36 1235.46 995.984 1279.32 999.515 1306.43 1000.55 1314.37 1005.56 1325.58 1007.04 1332.77L1012.05 1357.08C1011.22 1387.48 1009.55 1417.87 1009.55 1448.27 1009.55 1451.05 1010.96 1453.73 1012.05 1456.38 1012.32 1457.02 1012.05 1455.02 1012.05 1454.35L1014.56 1454.35" stroke="#042433" stroke-width="6.875" stroke-miterlimit="8" fill="none" fill-rule="evenodd"/><path d="M1755.5 853.5 1755.5 853.5 1785.72 861.599 1793.27 863.624C1795.79 864.299 1798.45 864.694 1800.83 865.649 1804.19 866.999 1807.45 868.509 1810.9 869.698 1819.39 872.623 1818.95 871.179 1828.53 873.748 1832.82 874.897 1836.7 877.036 1841.12 877.797 1848.55 879.078 1856.26 878.957 1863.79 879.822 1868.02 880.309 1872.18 881.172 1876.38 881.847 1882.37 884.738 1893.8 889.778 1899.04 893.995 1902.07 896.43 1907.8 905.522 1909.11 908.168 1911.09 912.132 1912.47 916.268 1914.15 920.317L1916.67 926.391C1917.51 964.862 1917.67 1003.35 1919.19 1041.8 1919.31 1044.88 1923.3 1060.37 1924.22 1064.07 1925.51 1076.49 1925.92 1088.42 1929.26 1100.52 1929.84 1102.6 1931.08 1104.54 1931.78 1106.59 1935.23 1116.77 1939.99 1133.05 1941.85 1143.04 1943.1 1149.75 1943.44 1156.55 1944.37 1163.29 1945.12 1168.7 1946.14 1174.08 1946.89 1179.49 1947.82 1186.23 1948.52 1192.99 1949.41 1199.73 1950.2 1205.81 1951.13 1211.88 1951.93 1217.96 1952.81 1224.7 1953.4 1231.47 1954.44 1238.2 1955.08 1242.28 1955.96 1246.33 1956.96 1250.35 1959.89 1262.11 1959.48 1254.53 1959.48 1262.5L1959.48 1262.5" stroke="#042433" stroke-width="6.875" stroke-miterlimit="8" fill="none" fill-rule="evenodd"/><path d="M665.5 1696.5 1128.5 1649.5" stroke="#042433" stroke-width="6.875" stroke-miterlimit="8" fill="none" fill-rule="evenodd"/><path d="M1191.5 1647.88 1569.16 1613.42 1604.41 1305.38 1647.21 1279.03 2470.5 1238.5 2400 1635.72 2377.34 1730.97 2193.55 1771.5" stroke="#042433" stroke-width="6.875" stroke-miterlimit="8" fill="none" fill-rule="evenodd"/><path d="M2195.5 1769.41 2195.5 1769.41 2127.55 1781.57 1508.5 1854.5 1536.18 1807.91 1563.86 1619.5" stroke="#042433" stroke-width="6.875" stroke-miterlimit="8" fill="none" fill-rule="evenodd"/><path d="M1327.25 1633.5 1327.25 1633.5C1313.79 1635.53 1299.69 1635.72 1286.87 1639.58 1281.26 1641.27 1262.23 1654.19 1256.59 1659.86 1252.8 1663.67 1249.86 1667.97 1246.5 1672.03 1246.53 1672.15 1248.93 1687.65 1251.55 1690.28 1253.44 1692.18 1256.97 1692.61 1259.12 1694.33 1273.87 1706.19 1267.17 1704.13 1279.3 1712.58 1325.86 1745.01 1292.3 1722.39 1329.77 1743 1339.21 1748.19 1347.59 1754.66 1357.53 1759.22 1365.39 1762.83 1374.46 1764.42 1382.76 1767.33 1387.93 1769.15 1392.77 1771.53 1397.9 1773.42 1444.59 1790.61 1427.76 1787.14 1455.94 1791.67 1460.14 1793.69 1464.48 1795.56 1468.56 1797.75 1472.06 1799.62 1475 1802.16 1478.65 1803.83 1480.96 1804.89 1483.7 1805.19 1486.22 1805.86 1489.58 1809.24 1493.08 1812.54 1496.31 1816 1498.13 1817.95 1499.39 1820.23 1501.36 1822.08 1504.46 1824.99 1508.09 1827.49 1511.45 1830.19 1512.29 1832.9 1513.02 1835.63 1513.98 1838.31 1514.71 1840.36 1516.5 1842.25 1516.5 1844.39 1516.5 1846.53 1516.29 1849.41 1513.98 1850.47 1509.53 1852.51 1503.88 1851.82 1498.84 1852.5 1490.43 1850.47 1481.46 1849.57 1473.6 1846.42 1469.35 1844.71 1467.19 1840.73 1463.51 1838.31 1457.91 1834.62 1451.4 1831.89 1445.85 1828.17 1415.18 1807.63 1455.95 1828.68 1410.52 1805.86 1404.77 1802.97 1398.92 1800.19 1392.85 1797.75 1388.8 1796.12 1384.15 1795.53 1380.24 1793.69 1357.88 1783.21 1369.26 1785.23 1349.96 1777.47 1335.06 1771.49 1338.76 1775.79 1324.72 1767.33 1321.87 1765.61 1319.46 1763.44 1317.15 1761.25 1310.2 1754.64 1303.7 1747.73 1296.97 1740.97 1282.87 1726.81 1288.99 1734.81 1279.3 1716.64 1277.03 1707.51 1275.88 1701.48 1271.73 1692.31 1270.45 1689.46 1267.13 1687.2 1266.69 1684.19 1265.41 1675.47 1266.69 1666.62 1266.69 1657.83L1266.69 1659.86" stroke="#042433" stroke-width="6.875" stroke-miterlimit="8" fill="none" fill-rule="evenodd"/><path d="M1015.5 1353.5 1015.5 1353.5C997.864 1355.53 980.276 1357.86 962.591 1359.59 952.551 1360.57 942.137 1359.55 932.357 1361.62 925.809 1363.01 921.096 1367.9 914.72 1369.74 912.742 1370.31 877.479 1373.72 876.927 1373.8 869.302 1374.88 861.642 1375.99 854.252 1377.86 794.766 1392.83 863.755 1378.48 826.538 1385.97 821.499 1388.68 816.578 1391.54 811.42 1394.09 805.654 1396.95 799.201 1398.94 793.784 1402.21 789.033 1405.08 781.186 1412.36 781.186 1412.36 778.667 1423.18 776.594 1434.08 773.628 1444.83 771.551 1452.36 766.525 1459.45 766.069 1467.16 763.192 1515.84 764.617 1515.68 773.628 1548.34 772.788 1563.23 772.426 1578.13 771.108 1593 770.745 1597.1 769.153 1601.08 768.589 1605.17 767.472 1613.27 766.909 1621.41 766.069 1629.53 767.85 1648.18 750.752 1681.12 778.667 1684.33 781.992 1684.71 785.385 1684.33 788.745 1684.33L788.745 1684.33" stroke="#042433" stroke-width="6.875" stroke-miterlimit="8" fill="none" fill-rule="evenodd"/><path d="M1437.18 386.695 1437.18 386.695C1410.46 382.659 1407.06 380.299 1376.92 385.45 1371.28 386.413 1365.54 388.394 1361.46 391.675 1356.31 395.824 1350.38 399.429 1346.01 404.124 1344.47 405.783 1343.3 407.725 1341.38 409.103 1338.6 411.091 1334.98 412.188 1332.11 414.083 1319.7 422.257 1329.98 419.404 1316.65 421.552 1312.43 424.953 1304.54 430.759 1301.2 435.245 1299.77 437.162 1299.39 439.489 1298.11 441.47 1293.21 449.045 1287.81 456.408 1282.66 463.878L1274.93 475.082C1273.61 479.357 1273.01 482.224 1270.3 486.286 1267.99 489.732 1264.93 492.823 1262.57 496.244 1259.77 500.3 1257.3 504.495 1254.85 508.693 1242.03 530.634 1257.18 505.428 1247.12 524.877 1245.79 527.446 1244.03 529.856 1242.48 532.346 1238.69 544.576 1239.62 539.862 1237.85 552.264 1236.78 559.73 1234.76 574.672 1234.76 574.672 1235.5 593.925 1237.89 613.845 1234.76 633.181 1234.21 636.574 1232.45 639.777 1231.67 643.14 1230.9 646.428 1231.39 649.913 1230.12 653.099 1227.24 660.365 1219.31 674.262 1219.31 674.262 1218.79 677.582 1218.48 680.927 1217.76 684.221 1216.94 687.989 1215.18 691.621 1214.67 695.425 1213.63 703.276 1213.64 711.194 1213.12 719.078 1216.63 733.208 1215.88 728.592 1217.76 741.486 1218.31 745.218 1218.29 749.022 1219.31 752.69 1220.37 756.533 1222.4 760.159 1223.94 763.894 1224.46 768.043 1225.6 772.173 1225.49 776.343 1225.09 790.472 1224.23 804.613 1222.4 818.668 1222.15 820.514 1220.03 821.888 1219.31 823.648 1217.47 828.087 1211.91 846.329 1206.94 854.77 1203.49 860.64 1199.73 866.389 1196.13 872.198 1193.08 877.107 1193.54 878.218 1186.86 880.912 1184.96 881.677 1182.74 881.742 1180.68 882.157 1158.94 899.67 1186.37 878.028 1165.22 893.361 1159.8 897.293 1150.61 905.512 1146.68 909.545 1144.39 911.897 1142.56 914.524 1140.5 917.014 1143.08 919.918 1144.8 923.468 1148.23 925.728 1151.36 927.792 1163.05 928.963 1166.77 929.463 1170.89 929.047 1175.1 929.029 1179.13 928.218 1181.37 927.768 1183.19 926.459 1185.31 925.728 1189.35 924.332 1200.42 922.374 1202.31 921.993 1204.88 927.803 1208.99 933.311 1210.03 939.422 1211.09 945.601 1208.49 951.857 1208.49 958.095 1208.49 962.476 1209.99 965.448 1211.58 969.299 1210.55 974.278 1203.2 981.527 1208.49 984.237 1234.73 997.689 1256.74 974.473 1239.39 995.441 1237.56 997.652 1235.27 999.591 1233.21 1001.67 1231.67 1005.81 1229.96 1009.93 1228.58 1014.11 1227.9 1016.16 1225.73 1018.5 1227.03 1020.34 1228.41 1022.28 1232.18 1022 1234.76 1022.83 1235.79 1024.9 1236.54 1027.08 1237.85 1029.05 1240.67 1033.32 1244.71 1037.07 1247.12 1041.5 1248.37 1043.81 1248.1 1046.49 1248.66 1048.97 1249.13 1051.05 1249.74 1053.11 1250.21 1055.2 1250.77 1057.68 1250.68 1060.29 1251.75 1062.67 1252.78 1064.94 1255.15 1066.69 1256.39 1068.89 1257.74 1071.28 1258.45 1073.87 1259.48 1076.36 1259.5 1076.47 1259.04 1090.05 1265.66 1090.05 1267.85 1090.05 1268.75 1087.56 1270.3 1086.32 1271.84 1082.58 1273.87 1078.96 1274.93 1075.11 1275.94 1071.45 1275.87 1067.64 1276.48 1063.91 1277.42 1058.09 1277.95 1052.2 1279.57 1046.48 1280.54 1043.02 1282.44 1039.77 1284.2 1036.52 1294.57 1017.43 1285.66 1035.56 1304.29 1014.11 1313.8 1003.17 1308.75 1002.83 1318.2 994.197 1323.5 989.356 1330.75 985.874 1335.2 980.503 1336.23 979.258 1337.17 977.965 1338.29 976.768 1341.81 972.983 1346.48 969.796 1349.1 965.564 1354.89 956.239 1351.67 960.322 1358.37 953.115 1359.4 949.796 1358.46 945.576 1361.46 943.156 1362.49 942.327 1363.64 941.583 1364.55 940.666 1367.77 937.426 1369.54 933.01 1373.83 930.708L1378.46 928.218C1374.86 927.803 1371.07 927.976 1367.65 926.973 1361.28 925.108 1355.14 916.179 1352.19 913.279 1350.81 911.917 1349.1 910.789 1347.56 909.545 1346.43 905.011 1342.2 896.251 1346.01 890.871 1346.93 889.572 1349.1 889.211 1350.65 888.382 1365.58 888.797 1380.54 888.958 1395.46 889.626 1410.06 890.28 1401.85 890.291 1410.91 892.116 1413.46 892.629 1416.07 892.902 1418.64 893.361 1420.71 893.732 1422.7 894.502 1424.82 894.606 1447.98 895.748 1471.17 896.266 1494.35 897.096L1511.35 899.586C1514.94 900.068 1518.58 900.306 1522.17 900.83 1524.26 901.136 1526.26 901.74 1528.35 902.075 1531.42 902.57 1534.53 902.905 1537.62 903.32 1539.68 904.15 1541.61 905.223 1543.8 905.81 1552.6 908.174 1549.79 905.908 1557.71 908.3 1573.86 913.182 1554.2 908.839 1570.07 912.034 1579.7 917.21 1568.83 912.109 1583.97 915.769 1586.18 916.302 1588 917.607 1590.15 918.259 1592.14 918.86 1594.3 919.012 1596.34 919.504 1599.46 920.258 1602.47 921.272 1605.61 921.993 1630 927.609 1609.93 922.324 1622.6 925.728 1624.66 927.388 1627.4 928.641 1628.79 930.708 1636.48 942.216 1634 955.646 1634.97 968.054 1635.32 972.628 1635.94 977.187 1636.51 981.748 1637.34 988.39 1638.01 993.994 1639.6 1000.42 1641.05 1006.25 1641.91 1012.21 1644.24 1017.85 1644.75 1019.09 1645.31 1020.33 1645.78 1021.58 1646.86 1024.48 1647.69 1027.43 1648.87 1030.3 1649.75 1032.42 1651.18 1034.38 1651.96 1036.52 1653.76 1041.45 1654.23 1046.7 1656.6 1051.46 1657.63 1053.54 1658.81 1055.57 1659.69 1057.69 1660.36 1059.31 1660.52 1061.05 1661.23 1062.67 1663.1 1066.87 1665.4 1070.95 1667.42 1075.11 1669.01 1078.42 1670.47 1081.76 1672.05 1085.07 1673.05 1087.16 1673.9 1089.3 1675.14 1091.3 1676.69 1093.79 1678.35 1096.23 1679.78 1098.77 1680.92 1100.8 1681.7 1102.96 1682.87 1104.99 1684.8 1108.36 1686.99 1111.63 1689.05 1114.95 1690.08 1116.61 1689.95 1119.34 1692.14 1119.93L1696.77 1121.17 1712.23 1133.62C1713.77 1134.87 1715.11 1136.3 1716.86 1137.36 1721.46 1140.14 1728.56 1144.3 1732.31 1147.32 1741.05 1154.35 1728.33 1148.2 1741.58 1153.54 1744.16 1156.03 1746.14 1159.02 1749.31 1161.01 1755.99 1165.2 1755.49 1159.86 1755.49 1163.5" stroke="#042433" stroke-width="6.875" stroke-miterlimit="8" fill="none" fill-rule="evenodd"/><path d="M1438.44 394.745 1438.44 394.745C1442.05 408.024 1445.57 421.32 1449.28 434.582 1453.96 451.283 1451.18 437.813 1453.93 453.256 1451.06 520.043 1457.49 469.188 1447.73 500.562 1446.99 502.961 1446.05 512.463 1444.63 515.5 1443.46 518.012 1440.71 519.902 1438.44 521.725 1436.37 519.235 1434.38 516.707 1432.24 514.255 1430.76 512.556 1428.36 511.259 1427.6 509.276 1426.22 505.684 1426.45 501.815 1426.05 498.072 1425.42 492.269 1425.02 486.453 1424.5 480.643 1425.02 467.779 1424.75 454.88 1426.05 442.051 1426.31 439.435 1427.8 436.971 1429.15 434.582 1438.18 418.608 1437.88 417.379 1449.28 407.194 1451.24 405.45 1453.54 403.969 1455.48 402.215 1457.67 400.229 1458.88 397.417 1461.67 395.99 1464.84 394.368 1468.9 394.33 1472.51 393.5 1474.79 393.615 1494.2 392.881 1501.94 395.99 1504.63 397.072 1507.16 398.41 1509.69 399.725 1515.94 402.976 1521.05 408.233 1528.27 409.684L1534.47 410.929C1539.45 413.599 1539.41 413.803 1545.31 415.909 1551.92 418.269 1555.99 418.848 1562.35 422.133 1566.69 424.377 1570.44 427.301 1574.74 429.602 1579.38 432.092 1584.73 433.898 1588.68 437.072 1596.72 443.538 1599.45 445.361 1607.26 454.5 1609.23 456.794 1609.88 459.713 1611.91 461.97 1616.63 467.225 1622.27 471.905 1627.4 476.909 1629.5 478.96 1631.26 481.254 1633.59 483.133 1636.17 485.208 1639.03 487.087 1641.34 489.358 1646.21 494.144 1648.04 498.058 1652.18 503.051 1659.27 511.596 1664.47 512.807 1670.77 525.46 1671.8 527.534 1672.32 529.825 1673.86 531.684 1675.48 533.637 1678.16 534.881 1680.06 536.664 1681.27 537.799 1682.07 539.181 1683.16 540.398 1684.66 542.086 1686.32 543.678 1687.8 545.378 1694.11 552.615 1695.38 554.29 1700.19 562.806 1700.87 564.001 1701.1 565.335 1701.74 566.541 1707.22 576.805 1702.88 565.63 1709.49 580.235 1711.11 583.823 1712.12 590.788 1712.58 593.929 1716.41 620.053 1712.05 594.682 1715.68 615.092 1716.71 628.786 1716.89 642.539 1718.78 656.174 1719.3 659.908 1719.47 663.684 1720.33 667.378 1721.02 670.347 1722.39 673.187 1723.43 676.092 1727.66 720.328 1721.87 669.855 1728.07 703.48 1729.44 710.914 1730.5 718.392 1731.17 725.888 1731.77 732.63 1733.31 750.956 1734.27 758.255 1736.23 773.229 1734.71 760.911 1738.91 774.439 1740.15 778.4 1741.4 788.428 1742.01 791.867 1742.46 794.366 1743.04 796.847 1743.56 799.337 1743.04 816.35 1742.95 833.376 1742.01 850.378 1741.92 852.087 1740.81 853.669 1740.46 855.357 1734.84 882.493 1742.1 852.5 1737.37 871.541 1737.88 876.52 1737.77 881.568 1738.91 886.479 1739.34 888.304 1741.2 889.721 1742.01 891.459 1742.76 893.061 1742.72 894.866 1743.56 896.439 1755.14 918.153 1748.48 899.811 1754.4 918.847 1754.92 925.901 1755.16 932.972 1755.95 940.01 1756.19 942.117 1757.5 944.119 1757.5 946.235 1757.5 953.716 1756.47 961.173 1755.95 968.643 1750.79 966.568 1745.74 964.302 1740.46 962.418 1735.25 960.554 1729.04 958.942 1723.43 957.439 1719.81 960.343 1715.61 962.84 1712.58 966.153 1701.38 978.432 1712.28 974.533 1701.74 977.357 1699.68 976.527 1697.86 974.867 1695.55 974.867 1686.44 974.867 1691.11 977.772 1687.8 981.092 1686.64 982.26 1684.94 983.159 1683.16 983.581 1676.06 985.258 1668.7 986.071 1661.47 987.316L1647.53 992.296C1645.44 993.074 1643.09 993.578 1641.34 994.786 1639.38 996.136 1638.19 998.077 1636.69 999.765 1635.61 1000.98 1631.73 1003.5 1633.59 1003.5 1636.17 1003.5 1637.72 1001.01 1639.79 999.765L1639.79 999.765" stroke="#042433" stroke-width="6.875" stroke-miterlimit="8" fill="none" fill-rule="evenodd"/><path d="M1414.07 884.629 1414.07 884.629C1404.95 879.13 1390.35 871.056 1384.72 863.516 1381.27 858.891 1375.32 850.432 1370.82 847.371 1364.13 842.817 1357.76 837.939 1350.74 833.709 1348.69 832.468 1346.49 831.359 1344.57 829.984 1341.85 828.039 1338.96 826.156 1336.84 823.774 1326.16 811.746 1332.25 817.599 1318.31 806.387 1317.28 804.317 1316.37 802.207 1315.22 800.178 1313.79 797.649 1311.75 795.341 1310.59 792.726 1309.16 789.511 1308.53 786.102 1307.5 782.79 1307.91 774.296 1308.23 750.421 1310.59 738.081 1310.84 736.787 1311.67 735.609 1312.13 734.355 1313.21 731.468 1314.31 728.585 1315.22 725.661 1316.32 722.121 1320.84 705.22 1321.4 702.065 1321.91 699.167 1322.29 696.251 1322.94 693.371 1323.32 691.692 1324.07 690.077 1324.49 688.403 1325.1 685.934 1325.52 683.435 1326.03 680.952 1327.06 670.602 1327.88 660.237 1329.12 649.903 1329.42 647.397 1329.75 644.858 1330.67 642.452 1331.82 639.438 1333.92 636.71 1335.3 633.758 1337.02 630.081 1337.95 626.17 1339.93 622.581 1342.09 618.686 1345.39 615.255 1347.66 611.403 1350.03 607.374 1351.77 603.124 1353.83 598.984 1354.42 595.182 1355.71 585.828 1356.92 581.597 1357.77 578.66 1358.91 575.784 1360.01 572.903 1360.97 570.401 1361.75 567.835 1363.1 565.452 1364.34 563.254 1366.45 561.423 1367.73 559.242 1375.58 545.925 1374.02 543.875 1383.18 534.403 1386.38 531.093 1388.33 530.402 1392.44 528.194 1399.14 528.607 1405.85 528.839 1412.52 529.435 1416.05 529.751 1422.77 531.185 1426.42 531.919 1434.66 531.091 1443.01 530.81 1451.13 529.435 1452.95 529.128 1454.06 527.54 1455.77 526.952 1457.72 526.279 1459.89 526.124 1461.94 525.71 1464 524.882 1466.01 523.955 1468.12 523.226 1472.16 521.833 1483.22 519.879 1485.11 519.5 1490.04 519.773 1520.22 518.429 1534.53 523.226 1539.21 524.794 1543.8 526.538 1548.43 528.194L1562.33 539.371C1564.39 541.027 1566.09 543.04 1568.51 544.339 1570.06 545.167 1571.69 545.898 1573.14 546.823 1589.55 557.237 1612.99 571.158 1622.57 586.565L1636.47 608.919C1639.02 621.255 1636.32 611.835 1642.64 625.065 1643.81 627.508 1644.7 630.032 1645.73 632.516 1646.25 633.758 1646.13 635.316 1647.28 636.242 1655.28 642.673 1651.71 639.336 1658.09 646.177 1661.69 643.694 1665.75 641.578 1668.9 638.726 1669.98 637.747 1669.72 636.171 1670.44 635 1671.27 633.665 1672.61 632.57 1673.53 631.274 1674.68 629.667 1674.85 627.492 1676.62 626.306 1678.25 625.214 1680.72 625.399 1682.8 625.065 1685.87 624.571 1689.01 624.35 1692.07 623.823 1696.22 623.107 1704.42 621.339 1704.42 621.339 1726.39 650.245 1719.51 633.68 1722.96 658.597 1723.3 661.099 1723.99 663.565 1724.5 666.049 1723.47 672.258 1723.88 678.734 1721.41 684.677 1718 692.904 1711.76 698.026 1705.97 704.549 1702.95 707.949 1701.92 709.919 1698.24 713.242 1695.83 715.43 1694.1 718.928 1690.52 719.452 1671.93 722.17 1678.99 720.472 1668.9 723.177 1655.38 731.332 1660.19 727.702 1653.46 733.113 1655.7 758.383 1657.13 764.28 1651.91 796.452 1651.8 797.156 1640.8 816.567 1639.56 817.564 1637.5 819.22 1635.05 820.614 1633.38 822.532 1631.4 824.807 1630.42 827.556 1628.74 829.984 1627.84 831.289 1626.63 832.438 1625.66 833.709 1622.51 837.821 1619.07 841.811 1616.39 846.129 1615.36 847.785 1614.42 849.478 1613.3 851.097 1611.84 853.207 1610.01 855.147 1608.67 857.306 1607.94 858.477 1607.76 859.829 1607.12 861.032 1604.77 865.444 1604.05 865.984 1600.94 869.726 1599.35 876.145 1600.14 876.593 1594.77 882.145 1592.98 883.994 1590.34 885.24 1588.59 887.113 1582.14 894.023 1589.73 890.964 1579.32 897.049 1575.97 899.012 1572.07 900.299 1568.51 902.016 1566.92 902.784 1565.42 903.672 1563.88 904.5L1563.88 904.5" stroke="#042433" stroke-width="6.875" stroke-miterlimit="8" fill="none" fill-rule="evenodd"/><path d="M1372.81 934.5 1372.81 934.5C1378.47 935.33 1384.1 936.364 1389.81 936.991 1395.45 937.61 1401.16 937.73 1406.82 938.236 1410.44 938.56 1414.03 939.093 1417.64 939.481L1430.01 940.726C1443.21 944.714 1444.41 944.68 1457.83 950.689 1468.82 955.607 1470.86 958.27 1482.57 961.896 1485.02 962.656 1487.75 962.628 1490.3 963.142 1491.88 963.46 1493.36 964.041 1494.94 964.387 1499.04 965.288 1503.24 965.871 1507.31 966.878 1517.2 969.33 1512.43 968.526 1519.67 971.859 1521.67 972.78 1523.8 973.519 1525.86 974.349 1527.4 975.594 1529.34 976.592 1530.49 978.085 1535.63 984.702 1533.94 991.588 1535.13 999.255 1535.91 1004.27 1537.07 1009.23 1538.22 1014.2 1538.62 1015.88 1538.82 1017.65 1539.77 1019.18 1550.4 1036.31 1543.22 1020.06 1547.5 1030.39 1546.47 1043.67 1548.09 1057.26 1544.41 1070.24 1543.64 1072.95 1538.29 1072.84 1535.13 1073.97 1533.64 1074.5 1531.98 1074.68 1530.49 1075.22 1527.34 1076.35 1524.31 1077.71 1521.22 1078.95 1517.1 1077.71 1511.96 1077.73 1508.85 1075.22 1506.63 1073.43 1507.92 1070.22 1507.31 1067.75 1505.83 1061.82 1505.29 1063.07 1504.21 1056.54 1503.82 1054.14 1502.34 1039.09 1501.12 1035.37 1499.46 1030.29 1496.52 1025.52 1494.94 1020.42 1494.15 1017.88 1492.91 1012.38 1490.3 1010.46 1483.85 1005.74 1477.49 1003.44 1470.2 1000.5L1448.56 1001.75C1445.36 1002.81 1445.2 1006.63 1443.92 1009.22 1438.12 1020.89 1440.68 1017.11 1437.74 1025.41 1437.29 1026.67 1436.54 1027.86 1436.19 1029.14 1435.51 1031.61 1435.47 1034.18 1434.64 1036.61 1433.61 1039.67 1428.63 1048 1426.91 1050.31 1418.21 1062 1421.78 1049.04 1405.27 1068.99 1404.24 1070.24 1403.66 1071.83 1402.18 1072.73 1397.37 1075.63 1386.72 1080.2 1386.72 1080.2 1385.17 1082.27 1383.42 1084.26 1382.08 1086.42 1380.84 1088.42 1379.92 1090.55 1378.99 1092.65 1371.75 1108.99 1376.78 1098.34 1371.26 1112.58 1369.8 1116.33 1368.17 1120.05 1366.62 1123.78 1363.85 1141.65 1365.85 1127.2 1363.53 1152.42 1363.07 1157.41 1363.88 1162.61 1361.98 1167.37 1359.16 1174.44 1352.15 1180.15 1349.62 1187.29 1344.7 1201.16 1348.93 1191.24 1343.43 1200.99 1341.66 1204.13 1338.33 1211.16 1335.7 1214.69 1323.55 1231.01 1334.95 1213.41 1324.88 1229.63 1324.36 1233.37 1324.19 1237.15 1323.33 1240.84 1322.64 1243.81 1320.79 1246.57 1320.24 1249.56 1318.72 1257.81 1317.15 1274.46 1317.15 1274.46 1317.67 1296.46 1317.83 1318.47 1318.7 1340.46 1318.86 1344.63 1320.24 1348.74 1320.24 1352.92 1320.24 1362.89 1319.52 1372.85 1318.7 1382.8 1318.49 1385.32 1317.56 1387.77 1317.15 1390.27 1314.13 1408.49 1317.06 1394.57 1314.06 1413.93 1313.15 1419.76 1311.8 1425.54 1310.97 1431.37 1309.42 1442.16 1307.86 1452.95 1306.33 1463.75 1305.8 1467.48 1305.55 1471.25 1304.78 1474.95 1304.27 1477.44 1303.8 1479.94 1303.24 1482.42 1302.77 1484.51 1302.09 1486.56 1301.69 1488.65 1301.06 1491.96 1300.73 1495.3 1300.14 1498.61 1299.7 1501.11 1298.99 1503.58 1298.6 1506.08 1297.41 1513.75 1297.08 1520.91 1295.51 1528.5 1295.16 1530.19 1294.38 1531.8 1293.96 1533.48 1293.34 1535.96 1292.97 1538.47 1292.41 1540.95 1290.75 1548.31 1291.3 1547.39 1286.23 1554.65 1283.28 1558.87 1276.95 1567.1 1276.95 1567.1 1273.57 1580.75 1277.8 1566.53 1272.32 1578.31 1269.4 1584.57 1272.6 1582.33 1267.68 1588.27 1252.62 1606.47 1251.94 1606.37 1238.31 1620.65 1228.19 1631.24 1238.24 1620.72 1230.57 1629.37 1229.08 1631.06 1227.44 1632.66 1225.94 1634.35 1223.11 1637.53 1222.42 1639.4 1218.21 1641.82 1216.33 1642.9 1214.08 1643.48 1212.02 1644.31 1205.96 1651.64 1212.32 1645.42 1198.11 1651.78 1192.85 1654.14 1196.51 1656.17 1190.38 1659.25 1188.15 1660.38 1185.23 1660.09 1182.65 1660.5 1179.04 1659.67 1175.53 1658.51 1171.83 1658.01 1166.21 1657.26 1160.28 1658.06 1154.82 1656.76 1148.37 1655.24 1145.44 1651.29 1140.91 1648.05 1137.9 1645.89 1134.64 1643.98 1131.63 1641.82 1130 1640.65 1128.69 1639.2 1126.99 1638.08 1123.01 1635.46 1118.27 1633.55 1114.63 1630.61 1098.53 1617.65 1119.82 1635.29 1106.9 1623.14 1102.38 1618.9 1096.72 1615.48 1091.44 1611.93 1081.37 1595.71 1093.64 1613.51 1077.52 1596.99 1057.12 1576.07 1079.9 1595.17 1063.61 1582.05 1059.71 1575.76 1061.01 1576.98 1054.33 1570.84 1052.89 1569.51 1051.06 1568.48 1049.7 1567.1 1046.93 1564.32 1044.88 1561.07 1041.97 1558.39 1037.65 1554.41 1032.69 1550.92 1028.05 1547.18 1025.99 1545.52 1023.73 1544 1021.87 1542.2L1014.14 1534.73C1013.62 1530.99 1013.3 1527.23 1012.59 1523.52 1012.27 1521.83 1011.13 1520.25 1011.05 1518.54 1010.1 1499.87 1009.5 1481.18 1009.5 1462.5 1009.5 1450.87 1009.78 1485.78 1011.05 1497.37 1011.35 1500.13 1015.91 1509.05 1018.78 1511.07 1020.86 1512.54 1023.93 1512.73 1026.51 1513.56 1029.99 1501.41 1033.89 1483.13 1040.42 1469.97 1041.7 1467.39 1043.82 1465.1 1045.06 1462.5 1046.4 1459.68 1046.87 1456.62 1048.15 1453.78 1050.13 1449.39 1053.25 1446.81 1055.88 1442.58 1057.63 1439.75 1059.11 1436.81 1060.52 1433.86 1062.55 1429.59 1065.29 1421.92 1066.7 1417.67 1067.8 1414.36 1068.63 1411 1069.79 1407.71 1070.69 1405.18 1072.03 1402.77 1072.89 1400.24 1073.5 1398.41 1074.88 1391.15 1075.98 1389.03 1077.75 1385.6 1080.1 1382.39 1082.16 1379.07 1083.19 1377.41 1084.62 1375.87 1085.25 1374.08 1089.29 1362.69 1086.67 1368.07 1092.98 1357.9 1093.5 1356.24 1093.46 1354.39 1094.53 1352.92 1098.13 1347.95 1104.36 1342 1109.99 1337.97 1117.09 1332.89 1126.36 1329.4 1131.63 1323.03 1135.82 1317.97 1135.22 1318.16 1142.45 1313.07 1143.85 1312.08 1145.55 1311.41 1147.09 1310.58 1148.12 1309.33 1148.94 1307.95 1150.18 1306.84 1157.46 1300.33 1168.44 1293.62 1173.37 1285.67 1174.4 1284.01 1175.24 1282.26 1176.47 1280.69 1180.4 1275.61 1185.97 1271.27 1188.83 1265.75 1191.41 1260.76 1193.96 1255.78 1196.56 1250.8 1198.09 1247.89 1199.02 1244.72 1201.2 1242.08L1207.39 1234.61C1211.13 1219.54 1206.21 1237.38 1212.02 1222.16 1213.27 1218.89 1213.95 1215.49 1215.12 1212.2 1216.3 1208.87 1221.53 1197.04 1222.84 1194.76 1224.6 1191.73 1227.06 1188.99 1229.03 1186.05 1230.67 1183.6 1231.89 1180.96 1233.67 1178.58 1234.99 1176.8 1236.88 1175.32 1238.31 1173.59 1241 1170.34 1243.07 1166.74 1246.03 1163.63 1263.8 1145.03 1243.26 1171.77 1261.49 1148.69 1266.33 1142.56 1270.41 1136.05 1275.41 1130.01L1278.5 1126.27C1282.08 1111.85 1277.12 1129.61 1284.68 1111.33 1286.02 1108.1 1290.1 1093.04 1290.87 1090.16 1291.42 1088.09 1291.41 1085.89 1292.41 1083.93 1305.04 1059.24 1296.72 1076.39 1306.33 1064.01 1307.55 1062.44 1308.1 1060.55 1309.42 1059.03 1311.73 1056.37 1314.84 1054.21 1317.15 1051.56 1318.47 1050.04 1318.96 1048.12 1320.24 1046.58 1322.07 1044.36 1324.36 1042.42 1326.43 1040.35 1327.46 1037.86 1328.26 1035.3 1329.52 1032.88 1339.99 1012.63 1328.02 1040.24 1338.79 1015.44 1340.95 1010.49 1343.7 1005.65 1344.98 1000.5 1345.49 998.425 1346.15 996.369 1346.52 994.274 1347.18 990.553 1347.2 986.758 1348.07 983.066 1353.49 960.16 1350.59 974.704 1354.25 964.387 1354.84 962.741 1355.28 961.066 1355.8 959.406L1352.71 955.67 1351.16 956.915" stroke="#042433" stroke-width="6.875" stroke-miterlimit="8" fill="none" fill-rule="evenodd"/><path d="M1542.5 1069.5 1542.5 1069.5C1545.07 1077.36 1545.7 1085.81 1550.22 1093.08 1554.68 1100.24 1556.37 1102.31 1559.49 1110.45 1560.26 1112.47 1560.05 1114.7 1561.03 1116.66 1563.13 1120.88 1569.42 1130.49 1573.38 1135.27 1574.81 1136.99 1576.06 1138.89 1578.01 1140.23 1579.76 1141.44 1582.13 1141.89 1584.19 1142.72 1585.22 1143.96 1585.87 1145.47 1587.28 1146.44 1590 1148.31 1597.67 1151.23 1601.18 1152.64 1604.26 1156.37 1609.53 1159.4 1610.44 1163.81 1610.96 1166.3 1611.51 1168.77 1611.99 1171.26 1612.54 1174.15 1612.93 1177.06 1613.53 1179.95 1614.99 1186.99 1616.48 1194.03 1618.16 1201.04 1619.06 1204.79 1619.75 1208.59 1621.25 1212.21 1623.07 1216.6 1625.92 1219.71 1628.97 1223.38 1629.49 1226.69 1629.58 1230.06 1630.51 1233.31 1632.36 1239.73 1634.11 1238.76 1636.69 1244.48 1637.97 1247.31 1638.59 1250.31 1639.78 1253.16 1640.66 1255.28 1641.92 1257.27 1642.87 1259.37 1643.98 1261.83 1644.93 1264.33 1645.96 1266.81 1646.47 1268.05 1647.5 1269.23 1647.5 1270.54L1647.5 1275.5 1647.5 1275.5" stroke="#042433" stroke-width="6.875" stroke-miterlimit="8" fill="none" fill-rule="evenodd"/><path d="M1265.5 1081.5 1265.5 1081.5C1269.09 1086.41 1272.42 1091.45 1276.27 1096.23 1277.05 1097.2 1278.54 1097.72 1279.35 1098.68 1280.62 1100.2 1281.29 1102 1282.42 1103.59 1283.34 1104.87 1284.47 1106.05 1285.5 1107.27L1280.88 1108.5" stroke="#042433" stroke-width="6.875" stroke-miterlimit="8" fill="none" fill-rule="evenodd"/><path d="M1361.5 1163.5 1361.5 1163.5C1368.19 1167.59 1374.33 1172.32 1381.57 1175.77 1384.78 1177.31 1388.76 1177.44 1392.38 1178.23 1399.61 1179.8 1399.37 1179.56 1407.81 1180.68 1430.87 1187.35 1417.64 1184.18 1438.69 1188.05 1440.75 1188.42 1442.76 1189.06 1444.86 1189.27 1451.01 1189.88 1457.21 1190.09 1463.39 1190.5 1477.8 1190.09 1492.24 1190.13 1506.61 1189.27 1512.86 1188.9 1518.92 1187.42 1525.14 1186.82 1535.91 1185.78 1546.75 1185.18 1557.56 1184.36 1567.16 1179.27 1557.76 1183.62 1576.08 1179.45 1578.75 1178.85 1581.23 1177.82 1583.8 1177 1585.72 1174.71 1588.37 1171.03 1591.52 1169.64 1594.36 1168.38 1597.58 1167.64 1600.78 1167.18 1603.31 1166.82 1605.93 1167.18 1608.5 1167.18L1608.5 1167.18" stroke="#042433" stroke-width="6.875" stroke-miterlimit="8" fill="none" fill-rule="evenodd"/><path d="M1405.5 804.357 1405.5 804.357C1411.93 805.643 1418.18 807.808 1424.79 808.214 1433.33 808.739 1448.78 806.758 1458.54 805.643 1472.47 806.071 1486.42 806.254 1500.33 806.928 1504.11 807.112 1507.79 808.214 1511.58 808.214 1527.13 808.214 1542.66 807.357 1558.19 806.928 1559.8 806.5 1561.82 806.601 1563.02 805.643 1567.06 802.407 1574.45 796.06 1564.62 792.786 1560.14 791.293 1554.98 791.929 1550.16 791.5L1477.83 792.786C1474.57 792.888 1471.28 793.247 1468.18 794.071 1457.08 797.034 1469.47 796.471 1458.54 797.929 1453.76 798.567 1448.9 798.786 1444.08 799.214 1442.47 799.643 1440.89 800.143 1439.25 800.5 1434.99 801.43 1430.35 801.491 1426.4 803.072L1419.97 805.643C1420.5 807.786 1420.22 810.174 1421.57 812.071 1422.53 813.413 1424.91 813.654 1426.4 814.643 1438.77 822.893 1424.07 814.686 1436.04 821.072 1437.14 823.705 1437.98 826.868 1440.86 828.786 1442.7 830.013 1445.1 830.579 1447.29 831.357 1451.61 832.892 1456.94 834.664 1461.76 835.214 1467.09 835.823 1472.47 836.071 1477.83 836.5 1488.54 836.071 1499.29 835.991 1509.97 835.214 1526.13 834.039 1528.04 835.37 1537.3 828.786 1545.71 822.802 1545.33 825.282 1545.33 821.072L1545.33 821.072" stroke="#042433" stroke-width="6.875" stroke-miterlimit="8" fill="none" fill-rule="evenodd"/><path d="M1443.5 660.5 1443.5 660.5C1445.13 663.966 1446.81 667.42 1448.4 670.9 1448.99 672.187 1449.66 673.462 1450.03 674.8 1450.75 677.373 1451.07 680.006 1451.66 682.6 1452.16 684.774 1453.21 686.891 1453.29 689.1 1453.76 701.228 1453.29 713.367 1453.29 725.5L1453.29 725.5" stroke="#042433" stroke-width="6.875" stroke-miterlimit="8" fill="none" fill-rule="evenodd"/><path d="M1460.5 762.657 1460.5 762.657C1475.64 765.031 1478.15 766.927 1492.64 764.043 1494.98 763.578 1496.87 762.085 1499.07 761.271 1505.54 758.883 1502.28 761.275 1505.5 758.5L1505.5 758.5" stroke="#042433" stroke-width="6.875" stroke-miterlimit="8" fill="none" fill-rule="evenodd"/><path d="M1323.5 680C1323.5 651.005 1349.92 627.5 1382.5 627.5 1415.08 627.5 1441.5 651.005 1441.5 680 1441.5 708.995 1415.08 732.5 1382.5 732.5 1349.92 732.5 1323.5 708.995 1323.5 680Z" stroke="#042433" stroke-width="6.875" stroke-miterlimit="8" fill="none" fill-rule="evenodd"/><path d="M1502.5 666.5C1502.5 637.229 1528.92 613.5 1561.5 613.5 1594.08 613.5 1620.5 637.229 1620.5 666.5 1620.5 695.771 1594.08 719.5 1561.5 719.5 1528.92 719.5 1502.5 695.771 1502.5 666.5Z" stroke="#042433" stroke-width="6.875" stroke-miterlimit="8" fill="none" fill-rule="evenodd"/><path d="M1442.5 677.5 1442.5 677.5C1446.25 674.801 1449.75 671.841 1453.74 669.401 1467.99 660.684 1454.37 671.571 1463.37 664.002 1483.85 664.863 1489 660.457 1500.29 668.051 1501.47 668.846 1502.43 669.851 1503.5 670.751L1503.5 670.751" stroke="#042433" stroke-width="6.875" stroke-miterlimit="8" fill="none" fill-rule="evenodd"/><path d="M1614.5 648.5 1614.5 648.5C1620.99 647.196 1627.7 646.475 1633.96 644.587 1639.16 643.019 1639.96 640.468 1643.69 638.065 1645.21 637.086 1647.03 636.436 1648.55 635.457 1649.75 634.688 1650.62 633.635 1651.8 632.848 1653.87 631.456 1656.21 630.326 1658.28 628.935 1659.46 628.148 1660.37 627.126 1661.53 626.326 1664.15 624.514 1666.87 622.779 1669.63 621.108 1671.19 620.168 1674.5 618.5 1674.5 618.5L1674.5 618.5" stroke="#042433" stroke-width="6.875" stroke-miterlimit="8" fill="none" fill-rule="evenodd"/><path d="M1678.5 1089.5 1678.5 1089.5C1684.51 1082.16 1689.82 1076.88 1693.8 1069.1 1694.93 1066.89 1695.66 1064.57 1696.59 1062.3 1697.05 1059.66 1697.13 1056.95 1697.98 1054.37 1699.17 1050.72 1705.82 1037.99 1707.72 1035.1 1715.39 1023.38 1718.3 1028.51 1725.8 1010.17 1727.2 1006.77 1728.46 1003.33 1729.98 999.967 1743.6 969.84 1729.57 1003.52 1738.33 980.7 1739.64 977.279 1742.5 970.5 1742.5 970.5L1742.5 970.5" stroke="#042433" stroke-width="6.875" stroke-miterlimit="8" fill="none" fill-rule="evenodd"/><path d="M1702.5 1126.5 1702.5 1126.5C1706.07 1129.69 1709.97 1132.61 1713.2 1136.08 1714.47 1137.46 1714.59 1139.5 1715.87 1140.88 1716.9 1141.98 1718.74 1142.25 1719.88 1143.27 1722.79 1145.88 1725.68 1148.56 1727.9 1151.66 1729.74 1154.22 1730.51 1157.28 1731.91 1160.05 1732.74 1161.67 1733.53 1163.32 1734.59 1164.84 1735.77 1166.53 1737.3 1168.01 1738.6 1169.63 1741.37 1173.11 1741.89 1174.54 1745.28 1178.02 1746.94 1179.72 1748.97 1181.11 1750.63 1182.81 1757.47 1189.81 1752.02 1185.49 1758.65 1193.59 1762.03 1197.72 1766.52 1201.13 1769.35 1205.57 1771.13 1208.37 1772.66 1211.3 1774.7 1213.96 1777.57 1217.71 1781.08 1221.05 1784.05 1224.74 1787.97 1229.6 1794.23 1238.18 1797.42 1243.91 1798.05 1245.04 1798.13 1246.37 1798.76 1247.5 1799.48 1248.79 1800.23 1250.15 1801.43 1251.1 1803.85 1252.99 1809.46 1255.89 1809.46 1255.89 1814.87 1263.17 1808.54 1256.12 1818.82 1261.88 1826.24 1266.04 1819.62 1265.47 1825.5 1265.47L1825.5 1265.47" stroke="#042433" stroke-width="6.875" stroke-miterlimit="8" fill="none" fill-rule="evenodd"/></g></svg>